<svg xmlns="http://www.w3.org/2000/svg" width="390.002" height="3767.001" viewBox="0 0 390.002 3767.001">
  <path id="Subtraction_2" data-name="Subtraction 2" d="M-3593,3767h-390V2072h324v543h-172v419h-134.423L-3788,3306.522-3610.578,3034H-3745V2692h152V3767Zm-190.706-238.539-.237.432c-.185.339-.327.6-.422.767a4.346,4.346,0,0,1-.243.386,1.578,1.578,0,0,1-.282.3c-.114.1-.288.251-.517.463l.4.555-.343.319.48.39a1.329,1.329,0,0,1,.211.511,2.272,2.272,0,0,1,.135.379,1.832,1.832,0,0,0,.409.6,4.079,4.079,0,0,1,.5.293c.143.1.336.239.645.466l.374-.039a4.058,4.058,0,0,0,.888-.219l.4-.1.054-.383a.514.514,0,0,1,.175-.129.512.512,0,0,0,.176-.128,4.065,4.065,0,0,0,.412-.264,1.16,1.16,0,0,0,.336-.381l.087-.385a1.184,1.184,0,0,0-.044-.263.286.286,0,0,1-.024-.076.252.252,0,0,1,.022-.1c.017-.045.049-.144.1-.293.04-.18.081-.374.127-.595.039-.192.09-.4.153-.629a4.754,4.754,0,0,1-.143-.457,4.2,4.2,0,0,0-.142-.456l-.15-.236a1.471,1.471,0,0,0-.781-.248,8.418,8.418,0,0,1-1.019-.129q-.317-.028-.746-.063a1.508,1.508,0,0,1-.561-.113Zm7.418-19.1a3.006,3.006,0,0,0-.24,1,4.73,4.73,0,0,1-.228,1.123c.176.465.351.875.52,1.218a3.18,3.18,0,0,1,.318,1.082l-.2.021-.028,0-.27.028a.2.2,0,0,0-.157.077.257.257,0,0,0,0,.222.368.368,0,0,1,.031.3,2.146,2.146,0,0,0-.04.523,21.164,21.164,0,0,1,.985,3.384,15.388,15.388,0,0,1,.319,3.642,1.075,1.075,0,0,0-.334.413,9.991,9.991,0,0,1-.169,1.967c-.122.643-.263,1.313-.419,1.992a1.19,1.19,0,0,1-.091.794,2.33,2.33,0,0,0-.253.718c.119.564.237,1.144.354,1.722a6.872,6.872,0,0,0,.472,1.506,3.272,3.272,0,0,0,.842,1.137,2.756,2.756,0,0,0,1.46.585c1.31-.781,2.684-1.544,4.082-2.267s2.75-1.5,4.014-2.323a22.963,22.963,0,0,0,3.482-2.754,11.292,11.292,0,0,0,2.481-3.591c-.008-.075-.016-.144-.022-.207s-.012-.114-.017-.161l-.007-.067a1.2,1.2,0,0,1,0-.283l.018-.127.018-.128c.011-.085.031-.193.06-.32a8.456,8.456,0,0,0-1.263-3.355,10.53,10.53,0,0,0-2.216-2.391,18.42,18.42,0,0,0-2.8-1.812c-1.007-.531-2-1.077-2.951-1.622a14.209,14.209,0,0,1-1.832-.388c-.585-.164-1.211-.345-1.912-.553q-.973-.291-1.98-.594C-3774.915,3509.671-3775.6,3509.5-3776.287,3509.362Zm-5.851,10.1h0a2.589,2.589,0,0,1-.594.173c-.236.037-.486.079-.787.129l-.254.278a1.992,1.992,0,0,0-.218.322c-.055.106-.156.289-.263.482l-.213.368.253.32c-.028.129-.054.275-.078.449a2.061,2.061,0,0,0-.084.983l.224.354a2.146,2.146,0,0,0,.222.165.409.409,0,0,1,.066.04.29.29,0,0,1,.055.073c.025.039.075.126.154.266.125.178.238.356.338.53s.216.364.341.561a4.4,4.4,0,0,0,.4.241,7.356,7.356,0,0,0,.722.3,1.6,1.6,0,0,0,.774-.41,8.926,8.926,0,0,1,.781-.633,7.49,7.49,0,0,0,.6-.47,3.163,3.163,0,0,1,.481-.365l.456-.142-.145-.488c-.15-.463-.226-.719-.263-.852a2.957,2.957,0,0,1-.1-.477,2.01,2.01,0,0,1,0-.425c.017-.155.03-.388.037-.7l-.7-.084.01-.5-.621.065h-.024a1.2,1.2,0,0,1-.5-.2,3.711,3.711,0,0,0-.35-.2,2.646,2.646,0,0,0-.724-.16Zm-87.729-7.463h0a1.431,1.431,0,0,0,.318.484c.133.127.279.255.433.379a2.4,2.4,0,0,1,.665-.1c.277-.006.5-.014.7-.027a2.591,2.591,0,0,0,.634-.114,1.2,1.2,0,0,0,.513-.337c-.015.072-.015.119,0,.142a.041.041,0,0,0,.035.015.131.131,0,0,0,.04-.008.51.51,0,0,1,.175-.032.475.475,0,0,1,.073.006,24.192,24.192,0,0,0,2.212-1.081,13.319,13.319,0,0,0,2.1-1.43,10.366,10.366,0,0,0,1.7-1.8,6.844,6.844,0,0,0,1.073-2.187,2.916,2.916,0,0,0,.09-1.25c-.061-.388-.139-.837-.24-1.373a3.5,3.5,0,0,0-.687-.854,1.95,1.95,0,0,1-.553-.774.389.389,0,0,0-.232-.106.18.18,0,0,0-.06.01.119.119,0,0,1-.039.007c-.068,0-.135-.068-.2-.2a2.269,2.269,0,0,0-.176-.626,2.375,2.375,0,0,0-.4-.634,1.985,1.985,0,0,0-.615-.47,1.422,1.422,0,0,0-.639-.143c-.06,0-.125,0-.192.01a.739.739,0,0,0-.389-.415,2.7,2.7,0,0,0-.6-.172c-.236-.042-.439-.081-.64-.122a1.035,1.035,0,0,1-.516-.26c.031-.109.014-.174-.051-.2s-.093-.09-.084-.2c.347-.078.671-.16.964-.243a1.661,1.661,0,0,0,.728-.406c.029,0,.059,0,.09,0a1.819,1.819,0,0,0,.7-.149l.184-.076.184-.076.13-.054.317-.131a2.846,2.846,0,0,1,.794-.208,1.022,1.022,0,0,1,.111-.006.919.919,0,0,1,.587.215c.582-.1,1.268-.224,2.1-.376.216-.041.434-.072.645-.092l.006.022.319.344c.085.012.272.172.553.476a1.77,1.77,0,0,0,.549.145c.08.007.158.01.232.01s.161,0,.24-.012a.824.824,0,0,0,.153-.032,1.11,1.11,0,0,1,.155-.032l.31-.033c.231-.024.467-.047.715-.075a1.141,1.141,0,0,1,.488-.145l.062,0c.024,0,.051,0,.079,0s.046,0,.07,0a.942.942,0,0,0,.1-.006l.312-.033a1.818,1.818,0,0,0,.729-.233.606.606,0,0,0,.118.01,1.776,1.776,0,0,0,.2-.012c.1-.011.208-.027.309-.047s.216-.05.337-.083c.1-.032.208-.059.306-.079s.209-.037.341-.052c-.034.117-.071.254-.1.372-.037.139-.081.285-.123.426l0,.011c-.082.246-.156.475-.226.7-.063.2-.143.458-.238.761l-.032.1-.248.339a13.135,13.135,0,0,1-.3,1.367c-.1.384-.221.8-.365,1.31-.209.8-.407,1.632-.588,2.482a9,9,0,0,0-.022,3.08,1.711,1.711,0,0,1,.248.414c.071.167.137.339.195.514a5.87,5.87,0,0,0,.243.665,2.016,2.016,0,0,0,.392.588c0,.008,0,.029.007.064l.008.076q.01.089.024.233l.3.125c.188.071.418.152.685.242a.637.637,0,0,0,.306.22l.01,0,.076.021c.093.025.2.055.335.089a.747.747,0,0,0,.211.229l.373-.04a1.923,1.923,0,0,0,1.524-.757,1.72,1.72,0,0,0,.13-1.458l-.313-.282a2.711,2.711,0,0,1-.4-.177,1.606,1.606,0,0,1-.3-.126.568.568,0,0,0-.135-.239c-.057-.054-.122-.121-.194-.2a1.665,1.665,0,0,1,0-.6c.01-.108.019-.217.028-.333a.86.86,0,0,0-.033-.325.44.44,0,0,0,.113-.421.988.988,0,0,1,.011-.2,1.869,1.869,0,0,1,.061-.305,1.738,1.738,0,0,0,.145-.707.39.39,0,0,0,.135-.218.854.854,0,0,1,.187-.319l.085-.385c.036-.253.1-.561.187-.915a3.488,3.488,0,0,1,.456-1.039,4.692,4.692,0,0,1,.228-.981,9.653,9.653,0,0,1,.416-.971c.079-.418.169-.823.266-1.207.094-.365.207-.742.338-1.12.13-.345.251-.707.36-1.074s.213-.8.307-1.257c.306-.053.652-.121,1.03-.2s.756-.171,1.181-.281c.566-.143,1.154-.284,1.747-.42a14.422,14.422,0,0,1,1.667-.285c.135-.014.252-.021.359-.021.126,0,.278-.013.452-.032a1.861,1.861,0,0,0,.271-.107c.076-.038.156-.084.237-.135.1-.055.2-.1.3-.142a1.174,1.174,0,0,1,.337-.082h.313l.24-.4a1.41,1.41,0,0,0,.328-.475,1.852,1.852,0,0,0-.424-1.337,7.153,7.153,0,0,0-.83-.73c-.141-.094-.269-.184-.39-.274a1.172,1.172,0,0,1-.3-.313l-.333-.186c-.168-.012-.343-.018-.518-.018-.084,0-.161,0-.237,0-.269.008-.553.027-.843.057a18.353,18.353,0,0,0-2.054.342c-.707.159-1.414.328-2.1.5-.469.134-.938.252-1.393.351-.487.107-.935.2-1.369.285a3.483,3.483,0,0,0-.423-.285.858.858,0,0,0-.428-.091,2.449,2.449,0,0,0-.38.035l-.294.188c-.062.166-.125.348-.193.555-.392.076-.795.157-1.308.262l-.072.015-1.175.241c-.65.126-1.355.259-2.095.394-.471.085-.934.158-1.376.214-.122-.138-.236-.272-.34-.4a2.243,2.243,0,0,1-.341-.562,10.377,10.377,0,0,0-1.831-.171,8.523,8.523,0,0,0-1.473.126,17.539,17.539,0,0,0-2.98.8c-.964.355-1.905.745-2.8,1.159s-1.755.848-2.551,1.289c-.351.138-.725.3-1.142.5a7.393,7.393,0,0,0-1.139.669,5.275,5.275,0,0,0-.974.9,2.758,2.758,0,0,0-.582,1.193,1.739,1.739,0,0,1,.069.653c-.023.168-.062.388-.118.671a.652.652,0,0,1,.24.495c0,.177-.01.388-.026.646a3.641,3.641,0,0,0,.4.476c.153.156.295.3.423.443a.556.556,0,0,1,.186-.039.212.212,0,0,1,.163.065,1.216,1.216,0,0,1,.185.263,7.487,7.487,0,0,0,1.939.362c.344.018.7.027,1.056.027.333,0,.67-.008,1-.024a7.274,7.274,0,0,1,.78.108.682.682,0,0,0,.134.014.87.87,0,0,0,.494-.175,7.646,7.646,0,0,0,1.329.379,6.6,6.6,0,0,1,1.4.434l.352.057a.217.217,0,0,0,.164.219c.1.021.142.1.137.253a1.077,1.077,0,0,1-.169.489,2.693,2.693,0,0,1-.306.378,3.494,3.494,0,0,0-.32.379,1.269,1.269,0,0,0-.217.5c-.466.275-.945.59-1.424.934s-.979.666-1.516.976a9.085,9.085,0,0,1-1.726.763,6.151,6.151,0,0,1-1.905.289h-.092a.789.789,0,0,0-.4.544,1.944,1.944,0,0,0,.022.658l.043.216.089.447a1.047,1.047,0,0,1-.033.584.113.113,0,0,0,.046.136.6.6,0,0,0,.148.063.149.149,0,0,1,.1.068,1,1,0,0,1-.135.375h.019c.07,0,.106.049.106.145s.044.142.129.142Zm31.705-16.749h0c-.539.793-1.053,1.539-1.526,2.218a14.284,14.284,0,0,0-1.362,2.437,10.921,10.921,0,0,0-.792,2.786,8.333,8.333,0,0,0,.214,3.229,7.979,7.979,0,0,0,1.054,1.507,5.957,5.957,0,0,0,1.411,1.171,4.871,4.871,0,0,0,1.763.615,4.635,4.635,0,0,0,.7.053,5.743,5.743,0,0,0,1.373-.177,8.71,8.71,0,0,0,.871.047,5.42,5.42,0,0,0,1.209-.125,8.309,8.309,0,0,0,1.772-.641,3.781,3.781,0,0,0,.865-.138,5.975,5.975,0,0,0,.968-.353c.319-.149.63-.309.924-.474s.559-.33.767-.474l.549-.181.287-.095a2.388,2.388,0,0,0,.729-.391,6.106,6.106,0,0,1,1.072-.866,3.1,3.1,0,0,0,.964-.982,1.661,1.661,0,0,0,.531-.637,3.8,3.8,0,0,0,.312-.912,5.356,5.356,0,0,0,.113-1.018,3.635,3.635,0,0,0-.1-.948,4.392,4.392,0,0,0-.258-.665c-.105-.217-.218-.432-.334-.639a5.038,5.038,0,0,1-.3-.644,2.1,2.1,0,0,1-.137-.708,21.155,21.155,0,0,1-1.606-2.424,20.719,20.719,0,0,0-1.605-2.424.483.483,0,0,0,.051-.414.2.2,0,0,0-.2-.151.143.143,0,0,1-.1-.037.253.253,0,0,1-.047-.184.7.7,0,0,0,.338-.521,3,3,0,0,1,.166-.662,1.581,1.581,0,0,0-.3-.518,1.4,1.4,0,0,1-.279-.552.38.38,0,0,0-.05,0,.125.125,0,0,0-.117.053.127.127,0,0,1-.119.053.29.29,0,0,1-.049,0,.808.808,0,0,0-.279-.411,4.538,4.538,0,0,0-.389-.258,2.483,2.483,0,0,1-.375-.275.818.818,0,0,1-.237-.461,1.372,1.372,0,0,0-.835-.321,2.68,2.68,0,0,1-.85-.162,2.928,2.928,0,0,0-.557.53,3.675,3.675,0,0,0-.382.7,3.268,3.268,0,0,1-.507.116,4.216,4.216,0,0,0-.447.079c-.216.337-.4.624-.554.859a2.22,2.22,0,0,1-.764.662l.036.342a1.217,1.217,0,0,0-.413.246c-.114.107-.224.22-.326.333a3.02,3.02,0,0,1-.329.318,1.384,1.384,0,0,1-.447.236,1.744,1.744,0,0,1-.6.738,1.514,1.514,0,0,0-.564.767.457.457,0,0,0-.248.183,2.689,2.689,0,0,0-.175.285.812.812,0,0,1-.179.238.257.257,0,0,1-.178.061A.541.541,0,0,1-3838.162,3495.253Zm16.683,3.269c-.107,0-.167.04-.177.117a2.125,2.125,0,0,1-.064.29,1.238,1.238,0,0,1,.295.566.765.765,0,0,0,.352.5.577.577,0,0,1-.183.051.129.129,0,0,0-.118.074.958.958,0,0,1,.7.711,4.158,4.158,0,0,1,.076,1.171c-.027.427-.075.871-.144,1.319a4.188,4.188,0,0,1-.281,1.067.769.769,0,0,0,.276.536.573.573,0,0,0-.233.621,2.243,2.243,0,0,0,.365.622c.163.205.328.409.5.624a.836.836,0,0,1,.223.62h.011a1.1,1.1,0,0,1,.486.089c.122.061.261.125.414.192.3-.1.626-.211.969-.337a4.5,4.5,0,0,1,1.073-.255,5.523,5.523,0,0,0,.6-1.445,8.671,8.671,0,0,0,.258-1.583,10.34,10.34,0,0,0-.011-1.6c-.046-.531-.1-1.037-.174-1.505.954-.3,1.954-.614,3.059-.951,1.041-.318,2.055-.678,3.013-1.07a14.324,14.324,0,0,0,2.662-1.427,7.212,7.212,0,0,0,2-2.049,5.7,5.7,0,0,0,.232-2.13,8.147,8.147,0,0,0-.428-1.981,8.836,8.836,0,0,0-.881-1.809,18.664,18.664,0,0,0-1.125-1.578,5.537,5.537,0,0,0-1.845-.812,10.562,10.562,0,0,0-2.386-.283c-.062.006-.094.052-.095.135a.082.082,0,0,1-.09.092.283.283,0,0,1-.075-.012,3.9,3.9,0,0,0-.635-.052,4.769,4.769,0,0,0-.606.041,7.108,7.108,0,0,0-1.3.294,5.578,5.578,0,0,0-1.17.532,4.422,4.422,0,0,0-.872.672,3.279,3.279,0,0,0-.879.753,6.046,6.046,0,0,0-.719,1.08,9.085,9.085,0,0,0-.554,1.3,12.243,12.243,0,0,0-.39,1.376,1.872,1.872,0,0,1-.073.793,1.784,1.784,0,0,1-.491.711.237.237,0,0,1-.142.087.068.068,0,0,1-.057-.035.144.144,0,0,0-.131-.055.566.566,0,0,0-.138.021c-.149.3-.318.61-.5.932a6.207,6.207,0,0,0-.435.942,4.292,4.292,0,0,0-.227.981,2.829,2.829,0,0,0,.1,1.058Zm18.293,7.132a1.112,1.112,0,0,1,.485.089c.114.057.245.119.414.194.292-.1.609-.207.969-.338a4.463,4.463,0,0,1,1.074-.254,5.565,5.565,0,0,0,.6-1.446,8.826,8.826,0,0,0,.257-1.582,10.536,10.536,0,0,0-.01-1.6c-.046-.526-.1-1.033-.175-1.505,1-.316,2.029-.636,3.058-.95,1.045-.319,2.059-.679,3.015-1.071a14.243,14.243,0,0,0,2.662-1.426,7.251,7.251,0,0,0,2-2.048,5.735,5.735,0,0,0,.232-2.131,8.161,8.161,0,0,0-.428-1.98,8.773,8.773,0,0,0-.882-1.809,18.256,18.256,0,0,0-1.125-1.579,5.51,5.51,0,0,0-1.844-.812,10.505,10.505,0,0,0-2.387-.283c-.062.006-.094.052-.1.135,0,.062-.03.093-.088.093a.306.306,0,0,1-.075-.011,3.79,3.79,0,0,0-.635-.052,4.821,4.821,0,0,0-.608.04,7.181,7.181,0,0,0-1.3.294,5.591,5.591,0,0,0-1.169.532,4.391,4.391,0,0,0-.871.673,3.247,3.247,0,0,0-.88.753,6.047,6.047,0,0,0-.719,1.08,9.393,9.393,0,0,0-.554,1.3,12.481,12.481,0,0,0-.389,1.376,1.861,1.861,0,0,1-.074.794,1.788,1.788,0,0,1-.491.712.242.242,0,0,1-.142.086.064.064,0,0,1-.056-.034.145.145,0,0,0-.132-.056.572.572,0,0,0-.139.021c-.154.305-.322.62-.5.933a6.239,6.239,0,0,0-.436.941,4.273,4.273,0,0,0-.227.982,2.815,2.815,0,0,0,.1,1.059l-.032,0c-.105,0-.165.04-.176.117a2.074,2.074,0,0,1-.064.29,1.262,1.262,0,0,1,.3.565.77.77,0,0,0,.35.5.594.594,0,0,1-.183.049.127.127,0,0,0-.118.076.957.957,0,0,1,.7.711,4.177,4.177,0,0,1,.076,1.17c-.029.439-.078.883-.145,1.32a4.277,4.277,0,0,1-.28,1.066.756.756,0,0,0,.276.535c-.229.213-.307.421-.233.622a2.259,2.259,0,0,0,.363.622c.169.214.339.423.505.623a.841.841,0,0,1,.222.621Zm19.747-21.59a1.854,1.854,0,0,0-.776.238,3.339,3.339,0,0,0-.552.419,5.074,5.074,0,0,0-.466.505,3.473,3.473,0,0,1-.483.491,1.8,1.8,0,0,1-.065,1.027,8.145,8.145,0,0,1-.311.772.832.832,0,0,0-.054.54,1.228,1.228,0,0,1,.013.564.251.251,0,0,1-.166.221.245.245,0,0,0-.168.19.691.691,0,0,0,.095.462.844.844,0,0,1,.1.523,17.3,17.3,0,0,1-.411,2.525,14.7,14.7,0,0,0-.375,2.553c-.008.317,0,.649.025.987.021.265.04.526.059.783l.017.23c.025.334.038.666.041.985a2.962,2.962,0,0,1-.112.877c.122.349.264.747.423,1.181s.342.9.533,1.343.4.881.608,1.3a4.912,4.912,0,0,0,.674,1.03c.094.006.2.009.3.009a5.88,5.88,0,0,0,.885-.071,2.569,2.569,0,0,0,1.071-.412,1.8,1.8,0,0,0,.663-.871,2.442,2.442,0,0,0-.044-1.473,13.037,13.037,0,0,1-.519-2.993,19.562,19.562,0,0,1,.077-3.008,27.687,27.687,0,0,1,.485-3.021c.22-1.017.466-2.047.73-3.062a.616.616,0,0,1-.4-.351,2.515,2.515,0,0,1-.209-.638c-.046-.236-.082-.481-.108-.727s-.048-.456-.064-.621a1.121,1.121,0,0,1-.583-.457,3.1,3.1,0,0,1-.306-.675c-.045-.141-.09-.281-.135-.422l-.1-.308A1.614,1.614,0,0,0-3783.439,3484.065Zm9.641-.95c-.828,2.5-1.721,5.055-2.657,7.6s-1.812,4.99-2.6,7.25a1.367,1.367,0,0,1,.275.52,1.5,1.5,0,0,1,.039.672c.175.273.363.6.558.979s.414.746.651,1.11a5.664,5.664,0,0,0,.794.969,2.061,2.061,0,0,0,1.047.55,1.023,1.023,0,0,0,.405-.184.63.63,0,0,1,.4-.1c.032,0,.066,0,.112,0-.033-.119-.073-.191-.116-.207a.039.039,0,0,1-.027-.026c-.01-.027,0-.072.041-.133a.811.811,0,0,0,.665-.259,1.274,1.274,0,0,0,.208-.556c.031-.217.054-.435.072-.668a.817.817,0,0,1,.255-.561.864.864,0,0,1-.119-.536,1.624,1.624,0,0,1,.14-.455c.07-.145.145-.285.224-.417a.9.9,0,0,0,.125-.453.352.352,0,0,0,.3-.267c.055-.161.11-.342.164-.535s.112-.386.176-.569a.566.566,0,0,1,.37-.369,10.233,10.233,0,0,0,1.9,2.722,12.083,12.083,0,0,0,2.478,1.908,4.08,4.08,0,0,0,.942.131,1.847,1.847,0,0,0,.5-.062,2.241,2.241,0,0,0,.892-.47,5.932,5.932,0,0,0,.665-.7,2.514,2.514,0,0,1,.721-.61.5.5,0,0,1-.072-.243.26.26,0,0,1,.047-.148.376.376,0,0,0,.066-.117.271.271,0,0,0-.019-.185c.126.008.2.032.227.07a.035.035,0,0,0,.029.018c.028,0,.067-.031.12-.1.176-.417.335-.815.472-1.182a2.951,2.951,0,0,1,.676-1.045c.058-.445.152-.952.281-1.506q.063-.268.123-.526l.09-.384.156-.668a9.188,9.188,0,0,1-.1-1.545c.013-.477.044-.939.091-1.376l0-.047q.068-.645.136-1.3c.046-.454.072-.959.078-1.5a1.41,1.41,0,0,0,.388-.5,2.626,2.626,0,0,0,.188-.6c.035-.182.069-.385.107-.639a1.94,1.94,0,0,1,.174-.583,2.9,2.9,0,0,0-.515-1.014c-.243-.311-.51-.632-.792-.954a1.661,1.661,0,0,1-.809-.214,7.063,7.063,0,0,1-.643-.434,5.663,5.663,0,0,0-.658-.434,1.732,1.732,0,0,0-.823-.211,4.483,4.483,0,0,0-.225.855c-.031.183-.06.365-.091.547l-.063.381c-.051.307-.115.6-.189.885a1.975,1.975,0,0,1-.365.728c-.062,1.085-.111,2.077-.152,3.033a16.821,16.821,0,0,1-.35,2.8,9.943,9.943,0,0,1-.845,2.414,5.305,5.305,0,0,1-1.611,1.866,8.528,8.528,0,0,1-.382-1.546c-.078-.537-.133-1.015-.169-1.459s-.072-.926-.1-1.388a7.664,7.664,0,0,0-.207-1.361.244.244,0,0,0,.051.006.105.105,0,0,0,.087-.036.587.587,0,0,0,.069-.1.535.535,0,0,1,.067-.1.194.194,0,0,1,.135-.062.9.9,0,0,1-.085-.509,1.93,1.93,0,0,1,.116-.389,1.488,1.488,0,0,0,.1-.4,1.052,1.052,0,0,0-.137-.551.443.443,0,0,0,.112.018.1.1,0,0,0,.091-.04.125.125,0,0,1,.118-.053.431.431,0,0,1,.051,0,.719.719,0,0,1-.125-.285.71.71,0,0,1,0-.173.256.256,0,0,0-.013-.124.768.768,0,0,0-.163-.2c.025-.048.056-.072.091-.072a.109.109,0,0,1,.044.011.065.065,0,0,0,.026.006c.043,0,.076-.054.1-.161a3.456,3.456,0,0,0-.671-1.3,4.868,4.868,0,0,0-1.091-.97,7.44,7.44,0,0,0-1.361-.689,15.557,15.557,0,0,0-1.481-.488Zm24.729-2.694h0a11.534,11.534,0,0,1-1.651,1.477c-.619.458-1.225.9-1.854,1.358s-1.209.916-1.769,1.4a8.4,8.4,0,0,0-1.41,1.53,1.225,1.225,0,0,0-.445.251,1.683,1.683,0,0,0-.292.361c-.081.135-.167.272-.257.4a3.087,3.087,0,0,1-.333.411,12.076,12.076,0,0,0-2.183,2.854,22.528,22.528,0,0,0-1.5,3.377,1.094,1.094,0,0,1,.043.562,1.621,1.621,0,0,0-.022.536.4.4,0,0,0,.15.079c.054.015.076.076.066.182a7.056,7.056,0,0,0,1.925,4.118,4.864,4.864,0,0,0,3.462,1.288c.113,0,.236,0,.365-.009a1.919,1.919,0,0,0,.691-.152,2.858,2.858,0,0,1,.75-.188l.7-.073a5.643,5.643,0,0,0,.94-.194.423.423,0,0,0,.077-.148c.013-.045.05-.067.111-.067l.037,0c.224-.043.43-.091.617-.142l.136-.037.429-.116c.2-.055.4-.1.613-.143s.473-.082.758-.112a22.273,22.273,0,0,1,2.991-1.289c1.02-.352,2.02-.747,2.971-1.175a13.285,13.285,0,0,0,2.545-1.493,5.518,5.518,0,0,0,1.741-2.273,1.439,1.439,0,0,0-.128-.615,1.324,1.324,0,0,1-.1-.649,3.158,3.158,0,0,1-.817-.448c-.24-.185-.477-.377-.7-.571s-.477-.39-.72-.569a2.82,2.82,0,0,0-.829-.416c-.367-.158-.749-.313-1.134-.461s-.791-.312-1.18-.473c-.355-.147-.727-.309-1.1-.482-.347-.159-.648-.313-.9-.455l-2,1.654a1.681,1.681,0,0,1-.125.454,1.192,1.192,0,0,0-.09.48.319.319,0,0,0,.1.025.057.057,0,0,0,.053-.025.372.372,0,0,0,.035-.114.193.193,0,0,1,.037-.1.1.1,0,0,1,.077-.023.5.5,0,0,1,.077.007.394.394,0,0,1,.223.322.475.475,0,0,1-.148.393,2.092,2.092,0,0,0,.431.959,2.187,2.187,0,0,0,.765.549,1.726,1.726,0,0,1-.271.265.166.166,0,0,0-.076.124.193.193,0,0,0,.089.141c.139.031.275.064.4.1l.108.029.286.075.074.02c-1.037.406-2.053.792-3.021,1.151a23.3,23.3,0,0,1-3.234.921.278.278,0,0,0-.136.2.305.305,0,0,1-.1.2,6.078,6.078,0,0,0-.638-.033,5.654,5.654,0,0,0-1.1.107,12.3,12.3,0,0,1-1.849.21.691.691,0,0,0-.164-.219.7.7,0,0,1-.165-.219,13.606,13.606,0,0,1,1.027-1.883c.416-.641.867-1.276,1.342-1.885s.986-1.21,1.511-1.777,1.041-1.083,1.564-1.563a14.9,14.9,0,0,1,1.609-1.284c.551-.379,1.094-.743,1.615-1.082s1-.647,1.5-.959a13.406,13.406,0,0,0,1.3-.922.342.342,0,0,1-.018-.312.367.367,0,0,0,.051-.256.159.159,0,0,0-.181-.153h-.007a.205.205,0,0,1-.22-.15c.145-.015.218-.07.218-.164a.506.506,0,0,0-.076-.275.971.971,0,0,1-.107-.272.119.119,0,0,1,.014-.1.194.194,0,0,1,.143-.061,1.818,1.818,0,0,0-.606-.69,4.224,4.224,0,0,0-.782-.4c-.261-.1-.529-.2-.817-.307a1.307,1.307,0,0,1-.675-.59.61.61,0,0,0-.129-.015.448.448,0,0,0-.212.052.32.32,0,0,1-.151.031,1.172,1.172,0,0,1-.356-.073Zm24.163,2.992h0a2.021,2.021,0,0,1,.128.913,5.684,5.684,0,0,1-.155.771c-.069.251-.133.5-.189.741a2.113,2.113,0,0,0-.007.834,9.57,9.57,0,0,0-.258,1.284c-.039.349-.067.66-.089.952a5.944,5.944,0,0,1-.139.91c-.073.316-.17.8-.29,1.429a.947.947,0,0,0-.293.5,5.739,5.739,0,0,0-.1.575,4.558,4.558,0,0,1-.1.561,1.036,1.036,0,0,1-.263.482l.029.055c.042.081.085.162.128.242a1.691,1.691,0,0,1,.132.364.449.449,0,0,0-.323.506,7.381,7.381,0,0,1-.016.755,2.575,2.575,0,0,0,.434.693c.178.2.234.378.167.532a.557.557,0,0,1,.406.287c.1.17.136.295.1.381a1.27,1.27,0,0,1,.4.115,1.64,1.64,0,0,1,.27.177c.078.063.159.134.241.209a.969.969,0,0,0,.318.186.375.375,0,0,1,.289-.159h.025l.09.006.252.02.18.013a.88.88,0,0,0,.384-.387c.093-.17.185-.348.274-.531.2.1.432.218.713.349a5.109,5.109,0,0,0,.786.3,1.828,1.828,0,0,0,.464.072.945.945,0,0,0,.155-.013c.166-.028.246-.145.244-.356a.229.229,0,0,1,.158.157.232.232,0,0,0,.158.156c.42-.135.833-.266,1.263-.4a1.5,1.5,0,0,0,.9-.582,12.317,12.317,0,0,0,3-1.226,26.32,26.32,0,0,0,2.718-1.793c.258-.265.381-.392.439-.455a1.119,1.119,0,0,0,.178-.254c.066-.123.156-.275.267-.453s.307-.491.674-1.075a.958.958,0,0,0-.036-.342.394.394,0,0,0-.251-.289.439.439,0,0,0,.084-.4,2.462,2.462,0,0,0-.2-.513c-.1-.2-.207-.395-.329-.593a4.581,4.581,0,0,1-.316-.611,1.437,1.437,0,0,0-.2-.089.64.64,0,0,1-.167-.093,3,3,0,0,0-.707-.742,9.941,9.941,0,0,0-.86-.571c-.277-.162-.56-.332-.888-.534a3.916,3.916,0,0,1-.792-.64,9.937,9.937,0,0,1,.924-1.228,10.74,10.74,0,0,0,.94-1.229,6.227,6.227,0,0,0,.672-1.375,3.686,3.686,0,0,0,.12-1.7.308.308,0,0,0-.2-.1c-.086-.013-.122-.071-.112-.177a1.28,1.28,0,0,0-.278-.694,2.893,2.893,0,0,0-.557-.523c-.222-.16-.449-.311-.675-.447a3.029,3.029,0,0,1-.6-.471c-.02,0-.042,0-.062,0a.717.717,0,0,1-.373-.115c-.148-.092-.3-.192-.456-.3a3.355,3.355,0,0,0-.518-.292.4.4,0,0,0-.167-.037.7.7,0,0,0-.457.228,1.519,1.519,0,0,0-.668-.228.705.705,0,0,1-.475-.187,1.178,1.178,0,0,1-.439.156c-.178.029-.361.053-.542.073s-.347.041-.543.072a1.149,1.149,0,0,0-.439.156,9.034,9.034,0,0,0-2.591.461c-.791.271-1.589.524-2.372.751q-.726.266-1.513.552a8.881,8.881,0,0,0-1.468.688,5.4,5.4,0,0,0-1.189.942,3.008,3.008,0,0,0-.712,1.285,6.469,6.469,0,0,0,1.349,1.775,4.723,4.723,0,0,0,1.932,1.054,1.793,1.793,0,0,1,.63-.145.779.779,0,0,0,.581-.3,1.591,1.591,0,0,1,.175-.724A.782.782,0,0,1-3724.906,3483.412Zm16.578-7.3-.525.087a1.549,1.549,0,0,0-.515.635,1.825,1.825,0,0,0-.127.72,2.551,2.551,0,0,0,.125.741q.082.26.155.489l.057.181c.088.242.166.482.232.714a1.043,1.043,0,0,1,.029.579l-.029.317a1.011,1.011,0,0,0,.232.416,4.186,4.186,0,0,0,.137.708c.063.216.138.434.228.668.066.209.125.393.186.576a5.159,5.159,0,0,1,.166.675,11.387,11.387,0,0,0,.584,1.226c.245.452.534.929.857,1.419a4.516,4.516,0,0,1,.839.822c-.078.16-.18.384-.332.727-.129.3-.307.693-.56,1.253-.288.686-.482,1.185-.594,1.523a5.844,5.844,0,0,0-.206.729,2.255,2.255,0,0,0-.431.831c-.084.3-.153.6-.2.9-.026.115-.049.235-.071.369a2.955,2.955,0,0,1-.075.338l0,.314a3.018,3.018,0,0,0,3.02,2.133l.446-.235a1.689,1.689,0,0,0,.192-.272l.056-.069.085-.1.165-.2a2.433,2.433,0,0,0,.3-.471l.028-.318.009-.021c.017-.04.039-.093.068-.158s.064-.141.1-.215c.09-.185.169-.363.241-.545a1.524,1.524,0,0,0,.114-.562,7.5,7.5,0,0,0,1.176-2.857,3.239,3.239,0,0,0,.434-.659,3.976,3.976,0,0,0,.234-.763,2.41,2.41,0,0,0,.408-.609,6.59,6.59,0,0,0,.273-.688c.076-.179.159-.367.255-.576a1.775,1.775,0,0,1,.324-.49l.107-.483a1.74,1.74,0,0,0,.307-.519c.049-.142.1-.3.183-.507.071-.188.126-.343.17-.474a2.622,2.622,0,0,1,.433-.657c.024-.085.046-.159.066-.224l.015-.052a1.582,1.582,0,0,0,.054-.241l.072-.09.066-.082a3.543,3.543,0,0,0,.269-.437,2.512,2.512,0,0,1,.268-.578c.065-.08.108-.122.129-.124l.374-.039.053-.383a1.709,1.709,0,0,1,.736-1.082l.19-.272a1.34,1.34,0,0,1,.3-.55c.159-.171.315-.339.466-.505.215-.219.428-.453.633-.695a2.682,2.682,0,0,0,.492-1.151l-.157-.3a1.224,1.224,0,0,0,0-.283,1.211,1.211,0,0,0-.2-.45l-.3-.157a9.412,9.412,0,0,1-.88-.442,1.365,1.365,0,0,1-.577-.567l-.168-.391-.429.109a4.261,4.261,0,0,0-2.625,2.224l-.316.284a2.324,2.324,0,0,1-.339.507c-.149.173-.291.342-.433.516l-.586.691.094.3-1.572,2.679a.48.48,0,0,1-.114.107.488.488,0,0,0-.115.106,1.149,1.149,0,0,1-.288.25,2.107,2.107,0,0,0-.116-.8c-.078-.214-.16-.432-.261-.695-.08-.205-.167-.438-.264-.711a3.662,3.662,0,0,1-.18-.813l-.162-.36c-.09-.053-.15-.217-.177-.485a1.481,1.481,0,0,0-.066-.338l-.036-.343-.44-.3-.263-.413a4.762,4.762,0,0,0-.7-.334c-.206-.079-.437-.16-.684-.242-.188-.091-.366-.171-.544-.242s-.346-.141-.515-.213Zm13.169,12.882-.237.433c-.185.341-.331.606-.422.768a2.875,2.875,0,0,1-.258.388,2.162,2.162,0,0,1-.3.3c-.115.095-.284.246-.516.463l.435.551-.344.32.482.389a1.346,1.346,0,0,1,.209.512,3.007,3.007,0,0,0,.513.984,2.919,2.919,0,0,1,.533.29c.15.1.362.256.646.466l.342-.036a3.719,3.719,0,0,0,.889-.219l.429-.108.054-.383a.546.546,0,0,1,.159-.127,1.3,1.3,0,0,0,.191-.129,3.133,3.133,0,0,0,.4-.263,1.242,1.242,0,0,0,.321-.378l.118-.389a.656.656,0,0,0-.06-.262.147.147,0,0,1-.04-.074.225.225,0,0,1,.021-.1c.017-.044.049-.142.095-.292a11.39,11.39,0,0,0,.28-1.224c-.042-.176-.077-.322-.112-.459a4.368,4.368,0,0,0-.142-.457l-.15-.235a1.48,1.48,0,0,0-.8-.246,7.058,7.058,0,0,1-1-.131c-.2-.019-.446-.04-.746-.063a1.964,1.964,0,0,1-.593-.111Zm3.209-19.1a1.861,1.861,0,0,0-.776.239,2.54,2.54,0,0,0-.55.45,5.826,5.826,0,0,0-.459.567,3.95,3.95,0,0,1-.476.553,2.268,2.268,0,0,1-.052,1.152,6.424,6.424,0,0,1-.3.834.87.87,0,0,0-.033.584,1.237,1.237,0,0,1,0,.644.282.282,0,0,1-.148.234.4.4,0,0,0-.182.209.8.8,0,0,0,.1.507,1.084,1.084,0,0,1,.11.6c-.036.471-.05.821-.044,1.073s0,.456-.013.63a1.476,1.476,0,0,1-.122.484,3.441,3.441,0,0,1-.375.606c0,.384-.011.863-.035,1.464-.022.582-.042,1.175-.061,1.814s-.022,1.26-.014,1.808a5.957,5.957,0,0,0,.168,1.444,8.175,8.175,0,0,0,1.159.57,2.614,2.614,0,0,0,.966.2,1.881,1.881,0,0,0,.216-.011,1.707,1.707,0,0,0,1.016-.5,2.953,2.953,0,0,0,.694-1.471,21.2,21.2,0,0,0,.49-2.817c.065-.752.11-1.48.133-2.166s.063-1.42.118-2.166a20.091,20.091,0,0,1,.47-2.845.45.45,0,0,1-.324-.39,2.989,2.989,0,0,1-.046-.733c.012-.265.031-.542.055-.823a3.893,3.893,0,0,0,.006-.692,1.577,1.577,0,0,1-.606-.376,2.274,2.274,0,0,1-.35-.5c-.091-.178-.189-.367-.3-.566A3.043,3.043,0,0,0-3691.95,3469.893Zm-165.034-5.718h0a1.923,1.923,0,0,1-.094.448c-.057.179-.118.354-.181.522-.095.277-.181.555-.258.829a2.138,2.138,0,0,0-.072.809,2.066,2.066,0,0,0-.257.247l-.306.378c-.088.548-.2,1.1-.33,1.637s-.275,1.06-.431,1.585c-.275.971-.518,1.975-.723,2.983a11.3,11.3,0,0,0-.021,3.694,1.59,1.59,0,0,1,.286.473c.071.181.15.383.236.6a7.284,7.284,0,0,0,.322.814,2.817,2.817,0,0,0,.466.705c.009.087.013.239.014.439l.362.15a1.9,1.9,0,0,0,.521.166.288.288,0,0,0,.164.062.271.271,0,0,1,.163.062.822.822,0,0,0,.373.259c.114.034.264.082.487.154a1.89,1.89,0,0,0,.278.254l.438-.015a2.248,2.248,0,0,0,1.79-.91,2.077,2.077,0,0,0,.158-1.776l-.35-.341a.945.945,0,0,1-.492-.2.381.381,0,0,0-.166-.077.394.394,0,0,1-.166-.077,1.08,1.08,0,0,0-.187-.3l-.11-.118-.1-.111a.589.589,0,0,1-.064-.323,4,4,0,0,1,.052-.4l.014-.228.01-.152a2.285,2.285,0,0,0-.009-.376,1.428,1.428,0,0,0,.131-.549.429.429,0,0,1,0-.267c.031-.12.06-.231.09-.34a4.8,4.8,0,0,0,.167-.8,1.057,1.057,0,0,0,.142-.3,1.2,1.2,0,0,1,.228-.37l.076-.479c.076-.313.159-.681.247-1.095a3.29,3.29,0,0,1,.548-1.219,5.787,5.787,0,0,1,.281-1.209,9.359,9.359,0,0,1,.51-1.137c.089-.527.2-1.019.317-1.463s.256-.886.4-1.314.274-.861.4-1.3c.119-.422.257-.923.41-1.489l.388-.085.262-.058.577-.128c.4-.087.831-.186,1.413-.32.645-.17,1.346-.339,2.083-.5a17.611,17.611,0,0,1,2.007-.336l.325-.035.11-.011c.131-.013.31-.021.531-.024.1-.046.22-.1.331-.145a1.677,1.677,0,0,0,.268-.138,3.612,3.612,0,0,1,.359-.179,1.684,1.684,0,0,1,.433-.093,2.161,2.161,0,0,0-.95,1.153,7.287,7.287,0,0,0-.407,2.115c-.041.783-.043,1.619-.006,2.483a19.937,19.937,0,0,1-.02,2.343c-.032,0-.063-.005-.093-.005-.151,0-.232.045-.24.134a2.087,2.087,0,0,1,.176.626,3.136,3.136,0,0,1,.007.816,4.752,4.752,0,0,1-.178.852,1.952,1.952,0,0,1-.323.661,10.29,10.29,0,0,1-.035,1.465,3.726,3.726,0,0,1-.5,1.545.46.46,0,0,1,.128.332,1.812,1.812,0,0,1-.059.321c-.03.1-.059.22-.09.355a.893.893,0,0,0,.049.466.164.164,0,0,0-.1-.045.079.079,0,0,0-.061.031.4.4,0,0,0-.073.2c-.013.089-.029.186-.048.288a.535.535,0,0,1-.086.228,3.47,3.47,0,0,1,.444.786,2.093,2.093,0,0,0,.5.718.287.287,0,0,0-.114-.03c-.079,0-.121.061-.123.18a.269.269,0,0,0,.044.188.08.08,0,0,0,.059.024.18.18,0,0,0,.044-.007c0,.041.05.083.138.126l.226.111.089.044a2.472,2.472,0,0,1,.353.216.423.423,0,0,1,.189.309,2.551,2.551,0,0,0,.918.211,1.35,1.35,0,0,0,.141-.008,2.305,2.305,0,0,0,.793-.225,4.472,4.472,0,0,0,.679-.417,3.349,3.349,0,0,1,.742-.408.266.266,0,0,0-.025-.249.824.824,0,0,1-.114-.175c.145-.017.28-.136.4-.357a4.86,4.86,0,0,0,.331-.742,7.52,7.52,0,0,0,.233-.779,2.11,2.11,0,0,0,.077-.464c.262-.2.591-.437.979-.7s.827-.545,1.295-.828a12.732,12.732,0,0,1,1.446-.748,6.9,6.9,0,0,1,1.458-.468c0,.022,0,.144-.009.362s-.025.461-.051.713-.043.478-.052.7-.012.328-.01.346a2.213,2.213,0,0,0,.481,1.285c.284.351.592.768.916,1.239a1.831,1.831,0,0,1,.571.207c.167.1.34.19.516.276.324-.154.676-.328,1.045-.518a3.491,3.491,0,0,0,.932-.7,2.687,2.687,0,0,0,.591-.972,2.7,2.7,0,0,0,.046-1.357,1.151,1.151,0,0,1-.255-.774,1.275,1.275,0,0,0-.12-.694,2.141,2.141,0,0,0,.319-.553,5.767,5.767,0,0,0,.214-.651c.063-.237.121-.447.182-.662a1.942,1.942,0,0,1,.283-.6,14.9,14.9,0,0,1,.173-2.39c.12-.763.222-1.551.3-2.342-.1-.712-.191-1.35-.284-1.949s-.206-1.232-.335-1.85a3.19,3.19,0,0,1-.855-.806c-.228-.315-.455-.661-.674-1.03-.226-.383-.439-.752-.634-1.1a6.357,6.357,0,0,0-.7-1.011,1.8,1.8,0,0,0-.89.644,2.825,2.825,0,0,0-.485,1.073,4.557,4.557,0,0,0-.1,1.268,4.12,4.12,0,0,0,.255,1.229.479.479,0,0,0-.285.282.923.923,0,0,1-.216.337,7.206,7.206,0,0,1,.2,2.493c-.08.818-.13,1.648-.148,2.466a8.344,8.344,0,0,1-1.354.724c-.481.2-.994.4-1.525.584s-1.062.354-1.581.512-1.025.326-1.518.5a.3.3,0,0,0,0-.233.1.1,0,0,0-.075-.042.216.216,0,0,1-.19-.168c.045-.354.088-.78.13-1.3.04-.491.078-1.01.116-1.584.035-.544.058-1.085.066-1.609s0-.983-.02-1.381a7.33,7.33,0,0,0-.778-.986c-.235-.249-.493-.516-.812-.842a8.8,8.8,0,0,1-.752-.879,4.744,4.744,0,0,1-.554-.984l.265-.431a2.087,2.087,0,0,0,.283-.281l.123-.328a2.187,2.187,0,0,0-.5-1.612,6.106,6.106,0,0,0-1.015-.837,3.883,3.883,0,0,1-.474-.326,1.957,1.957,0,0,1-.353-.371l-.4-.24c-.136-.005-.276-.008-.418-.008-.165,0-.331,0-.494.01-.311.012-.647.036-1,.073a20.875,20.875,0,0,0-2.47.417c-.693.16-1.514.349-2.484.576-.534.132-1.112.272-1.717.417-.556.132-1.1.247-1.629.343a2.368,2.368,0,0,0-.477-.343,1.076,1.076,0,0,0-.53-.107,3.315,3.315,0,0,0-.483.041l-.322.222-.086.229c-.03.078-.088.249-.156.457-1.081.175-2.107.378-3.048.6-.873.177-1.723.34-2.526.486s-1.63.265-2.414.348l-.094.01-.338.035-.081.009a4.345,4.345,0,0,1-.435.023h-.082l-.467.051-.065.572a1.5,1.5,0,0,0-.162.252,1.311,1.311,0,0,0-.108.467,3.787,3.787,0,0,0,.232,1.013,7.3,7.3,0,0,0,.365.778q.119.239.218.433a1.892,1.892,0,0,1,.155.438l.036.342.351.058c.106.01.234.123.381.337l.244.226a2.011,2.011,0,0,0,.677.164c.069,0,.142.005.217.005a3,3,0,0,0,.348-.017l.372-.039.373-.039.28-.03.086-.009.119-.012.355-.038a1.54,1.54,0,0,1,.58-.155l.373-.038.373-.039c.146-.016.288-.036.433-.062a1.243,1.243,0,0,0,.452-.189.833.833,0,0,0,.122.008,2.63,2.63,0,0,0,.284-.019,3.469,3.469,0,0,0,.767-.175c.117-.033.235-.061.353-.084S-3857.136,3464.191-3856.983,3464.175Zm35.885-2.986a.8.8,0,0,0-.274.075c-.074.037-.145.071-.21.1l-.474.271a7.406,7.406,0,0,0-.56,1.1c-.14.343-.276.706-.406,1.08s-.25.658-.346.9c-.113.288-.263.617-.46,1.006a.783.783,0,0,0-.033.286.731.731,0,0,0,.054.215c-.134.359-.257.7-.377,1.045-.136.391-.26.733-.377,1.045-.365,1-.736,2.022-1.132,3.135-.366,1.032-.7,2.1-1,3.185l.023.532-.313.316.444.33a.313.313,0,0,1,.1.179,1.672,1.672,0,0,0,.111.3c.027.089.063.208.1.336a1.553,1.553,0,0,0,.369.527,3.011,3.011,0,0,1,.47.281c.123.092.3.214.576.4l.313,0a1.505,1.505,0,0,0,.324-.064c.087-.031.235-.074.457-.14l.014,0,.367-.1.056-.351c.036-.023.085-.051.145-.086l.018-.01a.541.541,0,0,0,.16-.127c.117-.074.235-.155.351-.241a1.315,1.315,0,0,0,.312-.33l.087-.355a2.145,2.145,0,0,1,0-.77,8.328,8.328,0,0,1,.181-.821c.049-.195.092-.374.13-.548a5.69,5.69,0,0,0,.1-.576,1.173,1.173,0,0,1,.112-.122,1.01,1.01,0,0,0,.113-.122l.1-.545a.714.714,0,0,1,.013-.174.214.214,0,0,1,.08-.15l.3-.094.092-.323a3.489,3.489,0,0,1,.2-.806,1.5,1.5,0,0,0,.245.54.851.851,0,0,0,.148.66,2.586,2.586,0,0,0,.371.385.972.972,0,0,0,.136.1.844.844,0,0,1,.165.375l.317.029c.07,0,.138,0,.2,0s.168,0,.267-.005c.149,0,.306-.016.468-.034a6.8,6.8,0,0,0,1.246-.24c.37-.11.742-.24,1.106-.384.268-.108.548-.212.831-.307a2.2,2.2,0,0,1,.684-.1c.116,0,.238.006.361.017a1.712,1.712,0,0,1-.081,1.17,1.989,1.989,0,0,1-.982.67l-.816.305.589.535a1.347,1.347,0,0,0,.177.17l.205.167a2.355,2.355,0,0,1,.414.349.485.485,0,0,1,.071.385l-.081.417.389.116c.045.017.093.039.148.063.071.034.129.063.183.091a2.8,2.8,0,0,1,.316.171,1.532,1.532,0,0,0,.565.145,3.291,3.291,0,0,0,1.21-.442,4.715,4.715,0,0,0,1-.812,4.718,4.718,0,0,0,.737-1.051,5.043,5.043,0,0,0,.431-1.13l.049-.131a5.37,5.37,0,0,0-.121-1.15c-.081-.371-.171-.732-.27-1.071a1.675,1.675,0,0,1-.115-.349c-.024-.121-.052-.24-.084-.353a5.485,5.485,0,0,0,1.2-.991,4.159,4.159,0,0,0,.773-1.164l.2-.493-.484-.138a.967.967,0,0,1-.269-.16,3.182,3.182,0,0,0-.374-.259,1.066,1.066,0,0,0-.537-.11h-.072c-.2-.084-.312-.178-.343-.278l-.156-.3-.34.067c-.14.034-.265.068-.382.1a1.527,1.527,0,0,0-.316.128.294.294,0,0,0-.105-.013c-.055,0-.123,0-.209.013a8.6,8.6,0,0,1-.542-1.279c-.146-.432-.3-.894-.464-1.412-.094-.328-.2-.671-.311-1.02s-.239-.688-.374-1.014c-.07-.45-.146-.833-.233-1.17s-.179-.679-.282-1.038a4.38,4.38,0,0,1-.146-.487,3.682,3.682,0,0,0-.3-.723,1.952,1.952,0,0,0-.857-.382c-.356-.071-.721-.127-1.086-.168-.217-.042-.422-.079-.609-.11a1.814,1.814,0,0,1-.453-.126l-.429-.205-.265.467a15.783,15.783,0,0,1-1.153,1.9,4.687,4.687,0,0,1-1.4,1.295Zm17.935-5.154h0c-.822,2.483-1.716,5.04-2.658,7.6-.948,2.582-1.823,5.021-2.6,7.249a1.372,1.372,0,0,1,.275.521,1.471,1.471,0,0,1,.039.671c.174.272.362.6.559.978s.417.753.65,1.11a5.755,5.755,0,0,0,.793.969,2.078,2.078,0,0,0,1.048.55.99.99,0,0,0,.4-.184.631.631,0,0,1,.394-.1c.039,0,.077,0,.115,0-.034-.122-.073-.192-.117-.208a.04.04,0,0,1-.026-.024c-.01-.026,0-.072.041-.135a.816.816,0,0,0,.665-.258,1.291,1.291,0,0,0,.208-.557c.029-.205.053-.429.072-.666a.819.819,0,0,1,.255-.561.869.869,0,0,1-.119-.537,1.678,1.678,0,0,1,.14-.455c.067-.14.143-.281.224-.417a.9.9,0,0,0,.125-.452.351.351,0,0,0,.3-.268c.055-.156.11-.336.164-.535s.115-.393.176-.569a.563.563,0,0,1,.37-.367,10.306,10.306,0,0,0,1.9,2.721,12.1,12.1,0,0,0,2.478,1.907,4.063,4.063,0,0,0,.943.13,1.836,1.836,0,0,0,.494-.061,2.216,2.216,0,0,0,.893-.47,5.881,5.881,0,0,0,.666-.7,2.5,2.5,0,0,1,.72-.61.5.5,0,0,1-.073-.243.249.249,0,0,1,.048-.146.411.411,0,0,0,.066-.117.282.282,0,0,0-.019-.187c.128.008.2.031.227.07a.034.034,0,0,0,.03.018c.028,0,.068-.032.12-.1.167-.394.326-.792.473-1.181a2.942,2.942,0,0,1,.675-1.046c.057-.437.152-.944.282-1.506l.084-.361.13-.557.154-.66a9.311,9.311,0,0,1-.1-1.545c.013-.47.044-.933.091-1.376s.094-.9.141-1.351.072-.963.078-1.5a1.414,1.414,0,0,0,.388-.5,2.6,2.6,0,0,0,.188-.6c.043-.231.077-.44.1-.64a1.962,1.962,0,0,1,.175-.583,2.891,2.891,0,0,0-.516-1.015c-.235-.3-.5-.623-.791-.954a1.646,1.646,0,0,1-.809-.214,6.637,6.637,0,0,1-.642-.435,5.778,5.778,0,0,0-.658-.434,1.765,1.765,0,0,0-.824-.212,4.576,4.576,0,0,0-.224.857q-.059.354-.118.708l-.036.22c-.052.313-.116.61-.189.884a1.965,1.965,0,0,1-.364.729c-.059,1.028-.111,2.048-.152,3.032a16.763,16.763,0,0,1-.35,2.8,9.94,9.94,0,0,1-.846,2.414,5.293,5.293,0,0,1-1.611,1.866,8.719,8.719,0,0,1-.383-1.547c-.073-.5-.129-.989-.169-1.458-.035-.425-.067-.879-.1-1.388a7.656,7.656,0,0,0-.2-1.361.22.22,0,0,0,.051.006.106.106,0,0,0,.087-.037.594.594,0,0,0,.067-.1.684.684,0,0,1,.068-.1.186.186,0,0,1,.135-.062.9.9,0,0,1-.085-.509,1.993,1.993,0,0,1,.116-.39,1.459,1.459,0,0,0,.1-.4,1.054,1.054,0,0,0-.136-.552.432.432,0,0,0,.112.019.1.1,0,0,0,.09-.04.126.126,0,0,1,.117-.053.431.431,0,0,1,.05,0,.726.726,0,0,1-.124-.286.709.709,0,0,1,0-.171.254.254,0,0,0-.014-.125.746.746,0,0,0-.162-.2c.026-.048.056-.072.092-.072a.108.108,0,0,1,.043.01.069.069,0,0,0,.027.007c.042,0,.075-.054.1-.16a3.44,3.44,0,0,0-.67-1.3,4.854,4.854,0,0,0-1.091-.969,7.324,7.324,0,0,0-1.361-.689c-.494-.19-.992-.354-1.481-.489Zm18.126-1.929h-.072a2.187,2.187,0,0,0-.746.816,9.11,9.11,0,0,0-.433.972c-.125.335-.238.664-.336.979a2.6,2.6,0,0,1-.459.865,18.091,18.091,0,0,1-.511,2.756c-.252.926-.495,1.787-.721,2.558-.245.838-.459,1.717-.637,2.612a13.26,13.26,0,0,0-.23,2.884c-.085.053-.164.1-.237.135s-.092.12-.038.24c.069.056.1.1.093.131s.06.124.2.277a1.424,1.424,0,0,1-.367.1.458.458,0,0,0-.039.381,2.915,2.915,0,0,0,.145.331,1.121,1.121,0,0,1,.111.3.454.454,0,0,1-.135.359,2.884,2.884,0,0,1,.6.345.606.606,0,0,0-.071.526,2.5,2.5,0,0,0,.26.523c.117.185.228.368.34.561a1.656,1.656,0,0,1,.212.67,1.434,1.434,0,0,1,.423.144c.141.073.276.149.4.225a2,2,0,0,0,.43.19,1.169,1.169,0,0,0,.345.05,1.407,1.407,0,0,0,.161-.009,3.976,3.976,0,0,0,1.46-1.348,19.989,19.989,0,0,0,1.009-1.771c.313-.622.65-1.239,1-1.833a5.507,5.507,0,0,1,1.376-1.558.808.808,0,0,0,.276.047h.012a.343.343,0,0,1,.263.115,6.22,6.22,0,0,0,.969.841c.355.25.741.506,1.148.759.3.168.635.354,1.034.567a8.014,8.014,0,0,0,.827.4.939.939,0,0,0,.208.021,1.522,1.522,0,0,0,.247-.022,1.143,1.143,0,0,1,.183-.016.8.8,0,0,1,.276.047.728.728,0,0,1,.144.173.332.332,0,0,0,.141.142,7.831,7.831,0,0,0,2.285.358h.049a18.054,18.054,0,0,0,2.583-.214,4.642,4.642,0,0,0,1.61-1.427,3.237,3.237,0,0,0,.508-2.033,7.483,7.483,0,0,1-1.056-.785,2.635,2.635,0,0,0-1.223-.578l-.036,0a.109.109,0,0,0-.088.029.074.074,0,0,0-.008.065c.018.071-.013.122-.094.15-.761.081-1.524.156-2.271.223-.309.028-.612.042-.9.042a8.2,8.2,0,0,1-1.148-.078,4.989,4.989,0,0,1-1.758-.585,3.805,3.805,0,0,1-1.372-1.4.586.586,0,0,1,.228-.37.732.732,0,0,0,.259-.372.637.637,0,0,1,.185-.051.542.542,0,0,0,.182-.051,1.4,1.4,0,0,1,.3-.47,5.744,5.744,0,0,1,.429-.406c.163-.141.3-.266.446-.393a1.731,1.731,0,0,0,.348-.43,13.215,13.215,0,0,1,1.3-1.11c.425-.316.834-.626,1.252-.948s.831-.66,1.2-.975a12,12,0,0,0,1.154-1.127,4.094,4.094,0,0,1,.2-.617c.076-.177.148-.34.216-.494a1.269,1.269,0,0,0-.274-.662,1.9,1.9,0,0,0-.428-.332c-.193-.111-.337-.2-.469-.281a1.359,1.359,0,0,1-.427-.474,1.06,1.06,0,0,1-.72-.284c-.189-.182-.388-.357-.59-.52-.257.131-.5.268-.711.405a4.282,4.282,0,0,1-.777.379c-.006.149.029.228.1.241s.118.082.131.206c-.108-.031-.209-.057-.307-.078a.433.433,0,0,0-.082-.008.914.914,0,0,0-.3.065c-.659.554-1.287,1.058-1.869,1.5a13.077,13.077,0,0,0-1.813,1.714c-.223.229-.479.468-.76.708s-.568.49-.863.751-.6.537-.859.8a9.318,9.318,0,0,0-.747.816,5.105,5.105,0,0,1,.185-1.527,2.817,2.817,0,0,1,.8-1.4.389.389,0,0,1-.114-.177.285.285,0,0,1,.018-.127.581.581,0,0,0,.033-.145.664.664,0,0,0-.041-.232,1.132,1.132,0,0,0,.521-.729,1.856,1.856,0,0,0-.063-.89,2.628,2.628,0,0,0-.45-.848,2.923,2.923,0,0,0-.68-.635l-.457.142a1.7,1.7,0,0,1-.234-.289c-.064-.1-.131-.195-.2-.293a1.863,1.863,0,0,1-.315.027,1.289,1.289,0,0,1-.541-.11A1.744,1.744,0,0,0-3785.038,3454.106Zm17.92,16.931h0a1.421,1.421,0,0,0,.318.484c.125.12.271.247.433.379a2.389,2.389,0,0,1,.665-.1c.23,0,.467-.014.7-.027a2.568,2.568,0,0,0,.632-.114,1.2,1.2,0,0,0,.515-.337c-.015.072-.015.119,0,.142a.041.041,0,0,0,.035.015.121.121,0,0,0,.04-.009.518.518,0,0,1,.175-.031.562.562,0,0,1,.072.005,24.446,24.446,0,0,0,2.213-1.081,13.244,13.244,0,0,0,2.1-1.43,10.341,10.341,0,0,0,1.7-1.8,6.853,6.853,0,0,0,1.074-2.187,2.914,2.914,0,0,0,.09-1.25c-.071-.442-.151-.9-.24-1.374a3.53,3.53,0,0,0-.686-.855,1.911,1.911,0,0,1-.553-.774.391.391,0,0,0-.23-.1.183.183,0,0,0-.062.01.113.113,0,0,1-.038.007c-.068,0-.136-.068-.2-.2a2.21,2.21,0,0,0-.176-.625,2.34,2.34,0,0,0-.4-.634,1.973,1.973,0,0,0-.615-.47,1.422,1.422,0,0,0-.64-.142c-.063,0-.128,0-.192.01a.744.744,0,0,0-.389-.416,2.73,2.73,0,0,0-.6-.172c-.284-.051-.475-.087-.64-.122a1.033,1.033,0,0,1-.516-.26c.031-.107.014-.174-.051-.2s-.094-.089-.084-.2c.337-.076.661-.158.964-.243a1.667,1.667,0,0,0,.728-.407c.029,0,.06,0,.094,0a1.81,1.81,0,0,0,.691-.148l.351-.146.271-.112.191-.08a2.9,2.9,0,0,1,.8-.209c.036,0,.073-.006.109-.006a.918.918,0,0,1,.588.215c.547-.094,1.214-.214,2.1-.378a7.482,7.482,0,0,1,1.356-.125,7.393,7.393,0,0,1,.994.067,4.234,4.234,0,0,0,.6-.423c.181-.155.37-.329.559-.515a1.17,1.17,0,0,0-.152-.848,2.485,2.485,0,0,0-.56-.554,1.372,1.372,0,0,0-.244-.524c-.126-.169-.266-.34-.414-.507s-.305-.346-.448-.518a2.251,2.251,0,0,1-.342-.562,10.445,10.445,0,0,0-1.834-.17,8.49,8.49,0,0,0-1.47.126,17.489,17.489,0,0,0-2.98.8c-.955.352-1.9.741-2.8,1.158s-1.761.852-2.552,1.29c-.355.141-.739.307-1.141.5a7.467,7.467,0,0,0-1.139.67,5.281,5.281,0,0,0-.974.9,2.756,2.756,0,0,0-.582,1.192,1.758,1.758,0,0,1,.069.653c-.026.18-.066.407-.118.672a.659.659,0,0,1,.241.494c0,.2-.013.417-.027.646a3.815,3.815,0,0,0,.4.477c.132.133.271.278.424.444a.554.554,0,0,1,.186-.039.211.211,0,0,1,.163.065,1.219,1.219,0,0,1,.186.262,7.488,7.488,0,0,0,1.938.362c.347.018.7.027,1.06.027.34,0,.676-.008,1-.023a7.561,7.561,0,0,1,.78.106.666.666,0,0,0,.134.014.869.869,0,0,0,.494-.175,7.591,7.591,0,0,0,1.328.379,6.633,6.633,0,0,1,1.4.435l.351.057c.014.125.068.2.165.219s.142.1.137.251a1.1,1.1,0,0,1-.169.49,2.843,2.843,0,0,1-.306.377,3.61,3.61,0,0,0-.322.38,1.275,1.275,0,0,0-.216.493c-.479.285-.958.6-1.424.936s-.98.667-1.516.977a9.085,9.085,0,0,1-1.727.763,6.144,6.144,0,0,1-1.9.288h-.092a.786.786,0,0,0-.4.545,2,2,0,0,0,.021.658q.067.339.133.662a1.062,1.062,0,0,1-.033.585.115.115,0,0,0,.046.137.568.568,0,0,0,.148.063.146.146,0,0,1,.1.069.961.961,0,0,1-.133.374h.019c.07,0,.106.049.106.145s.044.143.128.143Zm25.357-12.28c-.224.087-.452.185-.677.29a3.1,3.1,0,0,0-.648.414,2.21,2.21,0,0,0-.514.636,2.3,2.3,0,0,0-.242.984,4.324,4.324,0,0,0,.63,1.5,2.841,2.841,0,0,0,1.343,1.117c-.026.116-.053.243-.085.4s-.056.282-.082.4a11.86,11.86,0,0,0-.185,1.229,3.841,3.841,0,0,0,.221,1.5,5.055,5.055,0,0,0,.579.725,3.017,3.017,0,0,1,.25.287,2.262,2.262,0,0,1,.188.3l.368.211a1.937,1.937,0,0,1,.514.1,4.069,4.069,0,0,0,.435.111.893.893,0,0,0,.172.014,2.532,2.532,0,0,0,.438-.047,1.866,1.866,0,0,0,.9-1.571,1.526,1.526,0,0,0-.234-1.044.451.451,0,0,1,.013-.174.93.93,0,0,1,.075-.181,2.977,2.977,0,0,0,.075-.338,1.567,1.567,0,0,1,.244-.513l-.049-.466a2.1,2.1,0,0,0,.267-.751c.036-.124.066-.222.094-.309a.723.723,0,0,1,.189-.287l.133-.054.335-.135a1.769,1.769,0,0,1,.5-.133l.215-.022.222-.023a5.928,5.928,0,0,1,.964-.4c.333-.106.693-.2,1.07-.285.227-.057.472-.119.747-.19l.095-.024c.279-.071.613-.168,1.021-.3a2.242,2.242,0,0,0,.461-.095c.14-.045.282-.1.424-.155a2.234,2.234,0,0,1,.92-.221l.421-.17,1.084-1.936a.979.979,0,0,0-.189-.451.65.65,0,0,0-.255-.193l-.186-.264a.888.888,0,0,0-.181-.075c-.056-.016-.146-.048-.277-.1l-.2-.418.222-.275-.995.1a13.126,13.126,0,0,0-1.56.258c-.508.117-1,.243-1.453.373-.342.1-.691.187-1.04.267a1.9,1.9,0,0,1-.417.045,2.5,2.5,0,0,1-.721-.114.717.717,0,0,1-.045-.42,4.031,4.031,0,0,1,.222-.573,2.42,2.42,0,0,1,.365-1.609c.01-.11.016-.2.017-.285a2.226,2.226,0,0,1,.021-.254c.01-.143.016-.272.021-.395a1.586,1.586,0,0,1,.192-.57l.529-.339a16.309,16.309,0,0,1,1.686-.711c.632-.232,1.312-.446,2.022-.637.691-.186,1.388-.349,2.071-.484s1.286-.231,1.793-.283l.2-.021.1-.011.056-.006c.105-.011.269-.018.516-.023l.323-.221a1.036,1.036,0,0,0,.666-.542,1.732,1.732,0,0,0-.493-1.393,1.048,1.048,0,0,1-.184-.106,1.363,1.363,0,0,1-.225-.2c-.137-.111-.286-.222-.443-.33a3.115,3.115,0,0,0-.533-.29,1.532,1.532,0,0,0-1.448-.676,3.83,3.83,0,0,0-.412.023,2.967,2.967,0,0,0-.308.048,1.045,1.045,0,0,1-.212.021c-.04,0-.072,0-.1,0l-.524.087a27.7,27.7,0,0,0-2.815.72c-.845.27-1.5.5-2,.7-.341.148-.616.269-.841.371a.276.276,0,0,1-.205.132c-.1.021-.211.047-.338.082-.147.038-.3.08-.458.127a1.2,1.2,0,0,0-.444.251c-.4.146-.8.31-1.191.487-.442.2-.82.368-1.155.514-.466.22-.842.394-1.184.549-.4.179-.8.344-1.191.487l-.25.309a2.877,2.877,0,0,1-.21.4l-.029.318a.844.844,0,0,0,.049.466.607.607,0,0,1,.154.266.215.215,0,0,1-.046.162l-.123.326.333.185a1.967,1.967,0,0,1,.535.6c.086.1.183.219.3.361a2.41,2.41,0,0,0,.564.428,2.561,2.561,0,0,0,.29.03h.026a1.022,1.022,0,0,1,.487.138,1.5,1.5,0,0,0-.046.758,4.736,4.736,0,0,0-.206.587c-.056.21-.1.4-.144.582a3.749,3.749,0,0,1-.092.464.525.525,0,0,1-.265.326,2.566,2.566,0,0,1-.6-.376Zm17.35-5.626h0c-.505.745-1.02,1.491-1.527,2.219a14.3,14.3,0,0,0-1.361,2.438,10.9,10.9,0,0,0-.792,2.785,8.327,8.327,0,0,0,.214,3.229,7.911,7.911,0,0,0,1.054,1.507,5.926,5.926,0,0,0,1.411,1.171,4.894,4.894,0,0,0,1.762.616,4.728,4.728,0,0,0,.7.053,5.693,5.693,0,0,0,1.372-.177,8.589,8.589,0,0,0,.874.047,5.394,5.394,0,0,0,1.208-.125,8.333,8.333,0,0,0,1.771-.642,3.727,3.727,0,0,0,.865-.138,5.927,5.927,0,0,0,.969-.353c.324-.151.635-.311.925-.475s.554-.327.766-.474c.291-.094.564-.185.835-.276a2.388,2.388,0,0,0,.729-.391,6.192,6.192,0,0,1,1.072-.866,3.088,3.088,0,0,0,.964-.982,1.646,1.646,0,0,0,.531-.636,3.789,3.789,0,0,0,.312-.913,5.315,5.315,0,0,0,.113-1.017,3.623,3.623,0,0,0-.1-.948,4.366,4.366,0,0,0-.259-.665c-.1-.21-.214-.425-.333-.639a5.129,5.129,0,0,1-.3-.644,2.057,2.057,0,0,1-.136-.708,20.959,20.959,0,0,1-1.607-2.423,20.809,20.809,0,0,0-1.605-2.424.48.48,0,0,0,.051-.414.2.2,0,0,0-.2-.151.139.139,0,0,1-.1-.038.249.249,0,0,1-.047-.182.708.708,0,0,0,.338-.523,2.9,2.9,0,0,1,.168-.662,1.581,1.581,0,0,0-.308-.518,1.394,1.394,0,0,1-.278-.552.349.349,0,0,0-.05,0,.122.122,0,0,0-.116.053.128.128,0,0,1-.119.053.306.306,0,0,1-.05,0,.807.807,0,0,0-.279-.411c-.127-.092-.258-.179-.389-.258a2.473,2.473,0,0,1-.374-.275.835.835,0,0,1-.238-.462,1.371,1.371,0,0,0-.835-.321,2.674,2.674,0,0,1-.849-.162,2.968,2.968,0,0,0-.557.53,3.663,3.663,0,0,0-.382.7,3.116,3.116,0,0,1-.507.117c-.111.012-.257.037-.446.078q-.324.505-.555.86a2.2,2.2,0,0,1-.763.661l.036.342a1.215,1.215,0,0,0-.414.248c-.114.106-.224.218-.326.331a3.111,3.111,0,0,1-.328.318,1.407,1.407,0,0,1-.446.236,1.755,1.755,0,0,1-.6.738,1.511,1.511,0,0,0-.563.767.468.468,0,0,0-.248.183,2.573,2.573,0,0,0-.175.286.832.832,0,0,1-.178.238.261.261,0,0,1-.179.061A.541.541,0,0,1-3724.411,3453.131Zm18.1,11.931a.7.7,0,0,1,.265.043,1.573,1.573,0,0,1,.249.13,1.035,1.035,0,0,0,.232.116.286.286,0,0,0,.11.017.979.979,0,0,0,.3-.059,2.232,2.232,0,0,0,.312-.316.583.583,0,0,1,.468-.153h.082a5.862,5.862,0,0,0,.653-1.4,16.944,16.944,0,0,0,.409-1.943c.375.272.753.543,1.1.794a7.273,7.273,0,0,0,1.006.6,10.933,10.933,0,0,0,1.281.525c.479.165,1.118.357,1.9.57a27.268,27.268,0,0,0,3.824.809,6.756,6.756,0,0,0,.757.046,3.625,3.625,0,0,0,1.663-.349.758.758,0,0,0,.416-.216,1.717,1.717,0,0,0,.246-.356c.07-.132.14-.266.209-.4a1.11,1.11,0,0,1,.278-.343.761.761,0,0,0-.1-.007.547.547,0,0,0-.136.016.183.183,0,0,1-.046.006.1.1,0,0,1-.1-.069,1.007,1.007,0,0,0,.157-.6,3.053,3.053,0,0,0-.11-.742,2.573,2.573,0,0,0-.344-.75,2.8,2.8,0,0,0-.553-.618c-.34.006-.631.01-.863.01h-.251c-.27,0-.531-.02-.774-.045s-.506-.056-.842-.1c-.311-.042-.745-.1-1.291-.162s-.981-.132-1.293-.2a6.087,6.087,0,0,1-.874-.238,7.518,7.518,0,0,1-.872-.38c-.292-.146-.692-.344-1.26-.622a.169.169,0,0,0-.024-.125.076.076,0,0,0-.057-.022h-.031c-.062,0-.1-.038-.1-.114a21.094,21.094,0,0,1,2.214-1.049,15.51,15.51,0,0,0,2.3-1.168,6.582,6.582,0,0,0,1.766-1.584,3.481,3.481,0,0,0,.654-2.3.972.972,0,0,0-.036-.342,2.388,2.388,0,0,0-.1-.241.637.637,0,0,1-.071-.228.743.743,0,0,1,.034-.271,7.674,7.674,0,0,1-.538-.932q-.12-.247-.24-.493l-.12-.247-.12-.247a8.162,8.162,0,0,0-.521-.919,2.857,2.857,0,0,0-.689-.729l-.039-.373a4.028,4.028,0,0,1-.451-.251,2.266,2.266,0,0,0-.446-.22,4.094,4.094,0,0,0-1.392-1.126c-.538-.267-1.037-.536-1.482-.8a3.7,3.7,0,0,0-1.923.988,9.492,9.492,0,0,0-1.289,1.644c-.386.623-.754,1.248-1.092,1.859a6.887,6.887,0,0,1-1.272,1.657.791.791,0,0,0-.549-.3,1.9,1.9,0,0,0-.4-.047,1.31,1.31,0,0,0-.366.051,7.922,7.922,0,0,0-.341,1.543c-.068.555-.13,1.122-.184,1.686s-.12,1.145-.2,1.734a13.152,13.152,0,0,1-.337,1.716,2.207,2.207,0,0,1,.072.385,3.61,3.61,0,0,1,.017.47,1.382,1.382,0,0,1-.054.383c-.02.062-.053.094-.1.094a.165.165,0,0,1-.083-.028,1.542,1.542,0,0,1,.188.892c-.031.29-.079.591-.142.895a7.479,7.479,0,0,0-.135.956c-.028.357-.053.719-.074,1.077a4.116,4.116,0,0,1,.262.412c.071.128.156.193.25.193l.021,0a.771.771,0,0,0,.007.36c.032.094.067.183.107.272a2.383,2.383,0,0,1,.111.3,1.043,1.043,0,0,1,.013.424.658.658,0,0,1,.19-.032.251.251,0,0,1,.246.143,4.843,4.843,0,0,1,.188.452A1.419,1.419,0,0,1-3706.307,3465.062Zm-65.012,60.464h0c.08-1.031.126-2,.138-2.874a19.606,19.606,0,0,0-.128-2.563,18.186,18.186,0,0,0-.464-2.465,24.131,24.131,0,0,0-.836-2.583.565.565,0,0,1,.391-.167,2.378,2.378,0,0,0,1.045.378,6.849,6.849,0,0,1,1.524.452c.051,0,.1,0,.146,0a2.345,2.345,0,0,1,.793.125c.269.1.529.2.771.31.223.1.471.211.757.33a2.482,2.482,0,0,0,.9.172,2.908,2.908,0,0,0,.662.764c.269.217.544.42.818.6.3.2.565.391.814.575a2.934,2.934,0,0,1,.689.728,4.7,4.7,0,0,1-.73,1.428,6.82,6.82,0,0,1-1.076,1.118,9.533,9.533,0,0,1-1.349.928c-.484.277-.984.551-1.485.815a2.575,2.575,0,0,1-.325.333,1.033,1.033,0,0,0-.286.423,3.152,3.152,0,0,0-.808.242,6.585,6.585,0,0,0-.653.352c-.219.133-.418.246-.608.346a2.415,2.415,0,0,1-.7.231Zm-64.9-20.843h-.164a2.431,2.431,0,0,1-1.3-.4,3.6,3.6,0,0,1,.143-1.334,6.669,6.669,0,0,1,.48-1.119c.181-.336.382-.69.6-1.053a5.137,5.137,0,0,0,.494-1.136.5.5,0,0,1,.171-.069h.007l.014,0a.345.345,0,0,0,.14-.065,9.082,9.082,0,0,1,1.449-1.754c.576-.542,1.133-1.076,1.656-1.589a1.373,1.373,0,0,0,.378.165,1.494,1.494,0,0,0,.374.053h.025a.515.515,0,0,0,.332-.129.6.6,0,0,0,.18-.381.336.336,0,0,0,.2.091.2.2,0,0,0,.143-.064.791.791,0,0,0,.192-.272,16.1,16.1,0,0,1,1.336,1.95,12.456,12.456,0,0,0,1.4,1.941,2.25,2.25,0,0,0,.079.448,1.361,1.361,0,0,0,.227.369,1.055,1.055,0,0,1-.164.677,1.634,1.634,0,0,0-.268.593c-.665.437-1.287.857-1.848,1.248a9.033,9.033,0,0,1-2.151,1.059,7.3,7.3,0,0,0-1.337.282,14.107,14.107,0,0,1-1.47.359A7.186,7.186,0,0,1-3836.221,3504.683Zm20.934-9.132h0a.451.451,0,0,0-.227-.211.448.448,0,0,1-.225-.212c.108-.314.195-.592.257-.828s.135-.544.218-.919a3.336,3.336,0,0,1,1.4-.916,5.565,5.565,0,0,1,1.678-.318c.067,0,.135,0,.21,0a5.591,5.591,0,0,1,1.379.166,3.348,3.348,0,0,1,1.151.491,3.137,3.137,0,0,1-1.4.918,9.266,9.266,0,0,0-1.607.718,4.169,4.169,0,0,1-1.434.543,3.653,3.653,0,0,0-1.4.572Zm16.689-1.755h0a.459.459,0,0,0-.226-.211.436.436,0,0,1-.226-.212c.114-.332.2-.611.259-.829s.132-.531.217-.917a3.311,3.311,0,0,1,1.4-.917,5.6,5.6,0,0,1,1.68-.319l.207,0a5.6,5.6,0,0,1,1.379.166,3.316,3.316,0,0,1,1.152.491,3.116,3.116,0,0,1-1.4.916,9.438,9.438,0,0,0-1.605.718,4.183,4.183,0,0,1-1.437.544,3.646,3.646,0,0,0-1.4.571Zm76.55-.252h0c.2-.875.356-1.531.5-2.125.183-.768.35-1.433.508-2.033a7.812,7.812,0,0,0,1.319-.454,8.733,8.733,0,0,1,1.365-.474,5.549,5.549,0,0,1,1.375-.165c.058,0,.118,0,.178,0a5.547,5.547,0,0,1,1.885.445.73.73,0,0,1-.094.592,2.606,2.606,0,0,1-.4.419c-.14.119-.3.257-.46.408a.951.951,0,0,0-.289.534c-.49.236-.965.492-1.413.761s-.884.521-1.363.787-.951.505-1.446.734a9.133,9.133,0,0,1-1.667.568Zm.9-9.364h0a2.42,2.42,0,0,0-.952-.842,10.364,10.364,0,0,1-1.154-.664,8.978,8.978,0,0,1,2.525-1.239,12.6,12.6,0,0,1,3.125-.612,12.791,12.791,0,0,1-1.532,1.873,8.482,8.482,0,0,1-2.011,1.484Zm-98.845-15.157v0c.085-.2.18-.4.282-.594s.21-.4.313-.6a17.694,17.694,0,0,1,.821-1.626,13.411,13.411,0,0,1,1.042-1.586l.154-.331c.265.667.513,1.322.739,1.949.212.586.431,1.205.671,1.894-.615.191-1.176.34-1.666.443s-1.06.211-1.68.318a1.706,1.706,0,0,1-.323.064,2.218,2.218,0,0,0-.352.069Zm97.523-6.46-.165,0a2.419,2.419,0,0,1-1.3-.4,3.587,3.587,0,0,1,.142-1.335,6.63,6.63,0,0,1,.479-1.119c.191-.351.392-.705.6-1.052a5.174,5.174,0,0,0,.494-1.135.506.506,0,0,1,.17-.069h.008a.039.039,0,0,0,.015,0,.345.345,0,0,0,.139-.065,9.108,9.108,0,0,1,1.449-1.754c.528-.495,1.085-1.029,1.656-1.588a1.407,1.407,0,0,0,.379.165,1.461,1.461,0,0,0,.369.053h.028a.516.516,0,0,0,.333-.129.585.585,0,0,0,.18-.381.335.335,0,0,0,.2.092.2.2,0,0,0,.143-.065.79.79,0,0,0,.192-.272,15.7,15.7,0,0,1,1.336,1.95,12.4,12.4,0,0,0,1.4,1.942,2.346,2.346,0,0,0,.079.448,1.367,1.367,0,0,0,.227.369,1.058,1.058,0,0,1-.165.678,1.649,1.649,0,0,0-.268.593c-.657.432-1.279.851-1.848,1.247a9.051,9.051,0,0,1-2.151,1.059,7.342,7.342,0,0,0-1.338.282,13.839,13.839,0,0,1-1.47.359A7.108,7.108,0,0,1-3722.469,3462.562Zm20.261-8.055h0a3.529,3.529,0,0,1,.31-1.242,5.76,5.76,0,0,1,.6-1.005c.243-.324.485-.629.722-.909a6,6,0,0,0,.666-.981,2.674,2.674,0,0,1,1.215.657,2.761,2.761,0,0,1,.832,1.484c-.569.308-1.268.685-2.141,1.152a8.73,8.73,0,0,1-2.2.845ZM-3593,2021h-324V1478h324v543Zm-66-595h-324V532.335L-3659,1030v396Zm66-430.335h0L-3917,498V0h324V995.666h0Z" transform="translate(3983)" fill="#151515"/>
</svg>
