<svg xmlns="http://www.w3.org/2000/svg" width="1920.001" height="4000" viewBox="0 0 1920.001 4000">
  <path id="Union_16" data-name="Union 16" d="M-1990,4000V3771H-809.006c0-1.268.007-2.613.007-4a1319.941,1319.941,0,0,0-14.008-194.529c-4.482-29.951-10.053-59.138-16.555-86.748-6.43-27.3-13.857-53.412-22.072-77.609a609.917,609.917,0,0,0-26.955-66.873,398.84,398.84,0,0,0-31.2-54.542c-11.09-16.024-22.8-29.688-34.806-40.612a157.035,157.035,0,0,0-18.557-14.583,122.545,122.545,0,0,0-17.754-9.862l-.7,0-.007-.316c-.251-.11-.5-.219-.754-.327h.745l-15.137-598H-1946V2073H-70V4000Zm0-229V2671h932l-8.807,551.045-3.169,0a123.31,123.31,0,0,0-16.875,9.462,156.9,156.9,0,0,0-18.557,14.583c-12.006,10.924-23.716,24.588-34.805,40.612a398.7,398.7,0,0,0-31.2,54.542,609.755,609.755,0,0,0-26.955,66.873c-8.216,24.194-15.64,50.306-22.072,77.609-6.5,27.615-12.074,56.8-16.555,86.748A1319.8,1319.8,0,0,0-1251,3767c0,1.225,0,2.569.006,4H-1990Zm953.307-194.828a3.833,3.833,0,0,0-.5-.293,1.821,1.821,0,0,1-.409-.6,2.5,2.5,0,0,0-.133-.378,1.335,1.335,0,0,0-.212-.512l-.48-.39.343-.318-.4-.555c.229-.212.4-.366.517-.463a1.621,1.621,0,0,0,.283-.3c.072-.1.154-.231.242-.386s.229-.412.423-.768l.237-.433.427.175a1.515,1.515,0,0,0,.561.115c.286.021.534.043.746.062a8.332,8.332,0,0,0,1.019.128,1.473,1.473,0,0,1,.781.248l.15.236a4.651,4.651,0,0,1,.143.456c.036.144.083.3.141.458-.06.216-.111.425-.153.628s-.083.4-.126.594c-.047.151-.078.25-.1.293a.244.244,0,0,0-.021.1.263.263,0,0,0,.024.075,1.374,1.374,0,0,1,.043.263l-.085.385a1.18,1.18,0,0,1-.336.382,4.516,4.516,0,0,1-.413.263.52.52,0,0,1-.176.13.522.522,0,0,0-.175.127l-.054.383-.4.1a4.035,4.035,0,0,1-.888.22l-.373.039Q-1036.455,3576.335-1036.692,3576.172Zm8.576-1.373a2.99,2.99,0,0,1-.7-.949,5.7,5.7,0,0,1-.414-1.244q-.152-.693-.292-1.431a1.746,1.746,0,0,1,.2-.6,1.129,1.129,0,0,0,.1-.687q.164-.834.33-1.637a6.908,6.908,0,0,0,.145-1.618.563.563,0,0,1,.306-.377,15.7,15.7,0,0,0-.3-3.032,16.191,16.191,0,0,0-.814-2.821,2.242,2.242,0,0,1,.03-.459c.02-.1.008-.163-.037-.2-.038-.164.01-.253.145-.267l.421-.044a2.719,2.719,0,0,0-.27-.915q-.22-.449-.438-1.022a3.19,3.19,0,0,0,.184-.947,1.967,1.967,0,0,1,.2-.821,23.515,23.515,0,0,1,3.351.936,14.263,14.263,0,0,0,3.144.768q1.2.693,2.467,1.359a14.932,14.932,0,0,1,2.328,1.516,8.995,8.995,0,0,1,1.843,1.99,6.882,6.882,0,0,1,1.05,2.812c-.01.106-.021.2-.034.271s-.028.145-.042.209a.747.747,0,0,0-.006.236c.01.093.022.213.037.357a9.429,9.429,0,0,1-2.055,3.012,18.375,18.375,0,0,1-2.9,2.3,37.454,37.454,0,0,1-3.363,1.923q-1.762.893-3.416,1.884A2.194,2.194,0,0,1-1028.116,3574.8Zm1.87-14.336a20.655,20.655,0,0,1,.7,2.173,15.6,15.6,0,0,1,.391,2.064,16.76,16.76,0,0,1,.115,2.14q-.011,1.1-.094,2.4a2.01,2.01,0,0,0,.56-.2q.253-.135.5-.288c.168-.1.345-.2.535-.292a2.572,2.572,0,0,1,.685-.213.855.855,0,0,1,.231-.339,2.686,2.686,0,0,0,.3-.314q.626-.316,1.235-.664a8.009,8.009,0,0,0,1.113-.761,5.332,5.332,0,0,0,.892-.927,3.827,3.827,0,0,0,.6-1.194,2.4,2.4,0,0,0-.567-.616q-.342-.263-.68-.494c-.227-.155-.447-.314-.664-.48a2.21,2.21,0,0,1-.554-.634,2.177,2.177,0,0,1-.739-.157c-.22-.094-.434-.186-.641-.279s-.428-.181-.658-.261a2.1,2.1,0,0,0-.78-.105,7.169,7.169,0,0,0-1.28-.368,2.136,2.136,0,0,1-.866-.318A.569.569,0,0,0-1026.246,3560.462Zm-9.407,7.053a4.112,4.112,0,0,1-.4-.241c-.125-.2-.239-.384-.341-.561s-.216-.353-.339-.53c-.077-.137-.129-.227-.154-.267a.323.323,0,0,0-.054-.071.473.473,0,0,0-.067-.041,1.819,1.819,0,0,1-.222-.165l-.226-.354a2.06,2.06,0,0,1,.085-.983c.024-.17.05-.319.078-.448l-.253-.319.212-.368q.185-.333.265-.483a1.949,1.949,0,0,1,.217-.321l.253-.278c.329-.056.592-.1.788-.129a2.55,2.55,0,0,0,.594-.174,2.665,2.665,0,0,1,.725.161,3.574,3.574,0,0,1,.349.2,1.089,1.089,0,0,0,.524.2l.621-.065-.009.5.7.083q-.014.473-.036.7a2,2,0,0,0,0,.424,2.949,2.949,0,0,0,.1.478c.05.183.139.467.262.852l.146.488-.457.142a3.128,3.128,0,0,0-.48.364c-.221.191-.42.348-.594.472a8.951,8.951,0,0,0-.783.631,1.566,1.566,0,0,1-.773.411A7.52,7.52,0,0,1-1035.653,3567.516Zm-102.028-11.367a2.015,2.015,0,0,1-.389-.555.167.167,0,0,1-.162-.188c0-.115-.054-.167-.158-.156a.418.418,0,0,1,.012-.19c.016-.043.032-.087.049-.131.075-.071.106-.121.093-.152a.2.2,0,0,0-.1-.083,1.406,1.406,0,0,1-.167-.092.133.133,0,0,1-.063-.151,1.084,1.084,0,0,0,.039-.68c-.059-.256-.111-.517-.161-.785a2.3,2.3,0,0,1-.018-.767,1.015,1.015,0,0,1,.465-.661,7.773,7.773,0,0,0,2.4-.377,11.837,11.837,0,0,0,2.072-.91,21.01,21.01,0,0,0,1.828-1.15q.863-.608,1.688-1.135a1.32,1.32,0,0,1,.239-.559c.119-.161.245-.314.375-.464a4.15,4.15,0,0,0,.358-.478,1.571,1.571,0,0,0,.22-.605.283.283,0,0,0-.019-.185.315.315,0,0,0-.105-.1,1.212,1.212,0,0,1-.135-.1.254.254,0,0,1-.082-.18c-.064-.014-.123-.029-.177-.044a.373.373,0,0,0-.144-.016,11.336,11.336,0,0,0-1.782-.5,8.251,8.251,0,0,1-1.588-.462.818.818,0,0,1-.732.2q-.387-.084-.927-.154a22.636,22.636,0,0,1-2.5.012,9.591,9.591,0,0,1-2.322-.417,1.349,1.349,0,0,0-.189-.31c-.072-.086-.22-.1-.444-.031a6.391,6.391,0,0,0-.511-.528,3.292,3.292,0,0,1-.483-.562c.029-.317.044-.576.044-.775a.941.941,0,0,0-.285-.615q.072-.509.12-.8a2.088,2.088,0,0,0-.066-.779,3.479,3.479,0,0,1,.711-1.458,6.241,6.241,0,0,1,1.16-1.08,9,9,0,0,1,1.361-.8q.718-.342,1.351-.6a.11.11,0,0,0-.138-.11c-.083.008-.108-.042-.078-.15a23,23,0,0,0,3.278-1.256q1.631-.768,3.354-1.42a18.413,18.413,0,0,1,3.575-.957,11.719,11.719,0,0,1,3.967.069,3.278,3.278,0,0,0,.417.679q.2.251.408.491,1.147-.122,2.343-.34,1.232-.223,2.525-.485,1.41-.336,3.048-.6c.079-.239.132-.39.156-.456s.054-.143.086-.229l.323-.223a1.664,1.664,0,0,1,1.011.066,2.406,2.406,0,0,1,.477.344q.8-.148,1.629-.344t1.716-.416q1.227-.286,2.485-.575a20.74,20.74,0,0,1,2.469-.418q.529-.056,1-.072c.312-.013.616-.014.911,0l.4.24a1.9,1.9,0,0,0,.353.371,4.057,4.057,0,0,0,.475.327,6.073,6.073,0,0,1,1.014.836,2.176,2.176,0,0,1,.5,1.613l-.122.327a2.1,2.1,0,0,1-.285.281l-.268.437-.341.035a1.727,1.727,0,0,0-.462.1,3.84,3.84,0,0,0-.358.179,1.8,1.8,0,0,1-.269.138c-.1.042-.21.09-.33.145-.23,0-.406.011-.531.024l-.435.046a18.061,18.061,0,0,0-2.008.336q-1.074.238-2.084.5-.736.17-1.411.32l-1.229.271q-.226.84-.409,1.488t-.4,1.3q-.215.65-.4,1.314c-.121.442-.227.931-.317,1.463a9.124,9.124,0,0,0-.509,1.138,5.7,5.7,0,0,0-.281,1.207,3.245,3.245,0,0,0-.548,1.222c-.09.429-.174.793-.246,1.093l-.076.479a1.189,1.189,0,0,0-.228.37,1.061,1.061,0,0,1-.141.3,4.9,4.9,0,0,1-.168.8q-.045.163-.09.34a.436.436,0,0,0,0,.267,1.408,1.408,0,0,1-.13.548,2.358,2.358,0,0,1,.008.376c-.008.126-.015.252-.024.379-.025.15-.043.282-.051.4a.582.582,0,0,0,.065.322c.07.077.141.153.213.229a1.1,1.1,0,0,1,.187.294.4.4,0,0,0,.166.077.382.382,0,0,1,.166.077.927.927,0,0,0,.493.2l.349.341a2.067,2.067,0,0,1-.159,1.776,2.235,2.235,0,0,1-1.79.911l-.438.015a1.635,1.635,0,0,1-.278-.254c-.2-.063-.358-.115-.488-.153a.819.819,0,0,1-.372-.26.3.3,0,0,0-.165-.061.274.274,0,0,1-.164-.06,1.881,1.881,0,0,1-.519-.166l-.362-.151c0-.209-.006-.355-.014-.439a2.819,2.819,0,0,1-.467-.7,7.14,7.14,0,0,1-.322-.815l-.235-.6a1.583,1.583,0,0,0-.286-.473,11.254,11.254,0,0,1,.02-3.694q.312-1.526.724-2.983.232-.778.431-1.585t.33-1.637l.305-.377a2.058,2.058,0,0,1,.258-.247,2.136,2.136,0,0,1,.071-.809q.116-.405.259-.828c.065-.174.125-.348.181-.522a1.974,1.974,0,0,0,.094-.45c-.146.015-.274.034-.386.057s-.232.049-.353.084a3.59,3.59,0,0,1-.767.175,1.8,1.8,0,0,1-.408.01,1.259,1.259,0,0,1-.452.19c-.144.025-.287.046-.434.061l-.372.039-.372.039a1.538,1.538,0,0,0-.58.156l-.56.058-.28.03-.372.038-.372.04a3.916,3.916,0,0,1-.564.012,2,2,0,0,1-.678-.165l-.244-.226c-.149-.215-.275-.327-.381-.337l-.351-.056-.036-.343v0a9.131,9.131,0,0,0-1.525.131q-1.388.241-2.495.482a1.018,1.018,0,0,0-.846-.272,4.312,4.312,0,0,0-.962.258c-.332.13-.66.257-.981.386a2.288,2.288,0,0,1-.925.176,1.834,1.834,0,0,1-.856.514q-.548.167-1.163.3a.193.193,0,0,0,.085.211c.066.035.085.116.056.246a1.135,1.135,0,0,0,.631.326c.257.046.518.086.783.123a2.807,2.807,0,0,1,.727.19.82.82,0,0,1,.462.5,1.943,1.943,0,0,1,.995.194,2.677,2.677,0,0,1,.75.565,2.519,2.519,0,0,1,.488.75,2.064,2.064,0,0,1,.173.752c.1.2.2.272.29.221s.2-.011.343.12a2.521,2.521,0,0,0,.678.919,4.076,4.076,0,0,1,.815,1.029q.16.926.286,1.667a3.151,3.151,0,0,1-.111,1.488,7.8,7.8,0,0,1-1.265,2.616,11.862,11.862,0,0,1-2.052,2.147,17.736,17.736,0,0,1-2.507,1.71,24.117,24.117,0,0,1-2.661,1.3.731.731,0,0,0-.3.031c-.111.033-.144-.026-.1-.178a1.267,1.267,0,0,1-.6.377,3.847,3.847,0,0,1-.773.13c-.28.018-.562.031-.843.04a3.663,3.663,0,0,0-.821.118A6.35,6.35,0,0,1-1137.681,3556.149Zm40.217-4.07a6.147,6.147,0,0,1-2.107-.752,6.816,6.816,0,0,1-1.685-1.394,9.166,9.166,0,0,1-1.244-1.818,10.245,10.245,0,0,1-.248-3.854,12.521,12.521,0,0,1,.94-3.32,18.835,18.835,0,0,1,1.623-2.935q.94-1.387,1.809-2.673a.363.363,0,0,0,.357-.037.94.94,0,0,0,.223-.275,3.287,3.287,0,0,1,.216-.336.76.76,0,0,1,.3-.252,1.413,1.413,0,0,1,.278-.5,4.69,4.69,0,0,1,.4-.4,5.421,5.421,0,0,0,.4-.4,1.894,1.894,0,0,0,.308-.5,1.5,1.5,0,0,0,.52-.274,3.382,3.382,0,0,0,.4-.388,4.785,4.785,0,0,1,.384-.385,1.825,1.825,0,0,1,.5-.3l-.043-.4a2.767,2.767,0,0,0,.923-.789q.272-.405.644-1.042c.227-.044.407-.073.542-.087a4.922,4.922,0,0,0,.63-.131,3.34,3.34,0,0,1,.447-.831,4.782,4.782,0,0,1,.656-.635,2.6,2.6,0,0,0,1.026.192,1.54,1.54,0,0,1,1.013.38.946.946,0,0,0,.279.551,3.353,3.353,0,0,0,.443.331c.157.1.315.2.473.311a.88.88,0,0,1,.335.5c.1-.011.169-.038.195-.083s.094-.062.2-.051a3.35,3.35,0,0,0,.168.39,1.821,1.821,0,0,0,.169.265c.06.077.122.165.186.263a2.3,2.3,0,0,1,.179.358,7.847,7.847,0,0,0-.2.822.851.851,0,0,1-.437.627c.017.165.089.246.214.244a.234.234,0,0,1,.243.21.682.682,0,0,1-.045.476,29.771,29.771,0,0,1,1.907,2.9,26.167,26.167,0,0,0,1.938,2.891,2.145,2.145,0,0,0,.135.85,5.966,5.966,0,0,0,.366.794c.143.257.279.516.411.774a3.89,3.89,0,0,1,.3.785,5.226,5.226,0,0,1,.119,1.134,5.452,5.452,0,0,1-.126,1.192,4.627,4.627,0,0,1-.387,1.093,2.32,2.32,0,0,1-.639.806,3.86,3.86,0,0,1-1.137,1.14,7.419,7.419,0,0,0-1.271,1.06,3.271,3.271,0,0,1-.895.456q-.486.161-1,.341a7.06,7.06,0,0,1-.913.582c-.355.194-.725.375-1.105.541a10.008,10.008,0,0,1-1.15.418,3.452,3.452,0,0,1-1.053.159,11.207,11.207,0,0,1-2.116.787,7.089,7.089,0,0,1-2.5.106,6.842,6.842,0,0,1-1.622.208A5.225,5.225,0,0,1-1097.464,3552.079Zm1.714-11.492a6.722,6.722,0,0,1-.594,1.367q-.358.619-.7,1.252a7.829,7.829,0,0,0-.566,1.332,4.215,4.215,0,0,0-.162,1.6,2.768,2.768,0,0,0,1.543.482,8.2,8.2,0,0,0,1.76-.153q.893-.173,1.777-.423a9.564,9.564,0,0,1,1.6-.325c-.019-.187.053-.289.219-.306a6.3,6.3,0,0,0,2.348-.985q1.056-.724,2.2-1.473a2.33,2.33,0,0,1,.336-.7,1.309,1.309,0,0,0,.195-.836,2.04,2.04,0,0,1-.252-.446,2.608,2.608,0,0,1-.105-.555,13.753,13.753,0,0,1-1.654-2.292,17.763,17.763,0,0,0-1.63-2.358.834.834,0,0,1-.217.336c-.112.116-.25.109-.41-.02a.694.694,0,0,1-.236.45.826.826,0,0,1-.409.153,1.249,1.249,0,0,1-.476-.043,1.636,1.636,0,0,1-.446-.2q-1,.983-1.984,1.905a10.907,10.907,0,0,0-1.743,2.1c-.1.073-.157.1-.181.082a.042.042,0,0,0-.027-.007A.565.565,0,0,0-1095.751,3540.587Zm19.8,9.437a1.343,1.343,0,0,0-.592-.112.97.97,0,0,0-.252-.759c-.2-.25-.41-.5-.611-.737a2.124,2.124,0,0,1-.425-.741.688.688,0,0,1,.284-.737.867.867,0,0,1-.32-.657.428.428,0,0,0,.324.092,3.769,3.769,0,0,1,0-1.352q.12-.8.18-1.574a4.3,4.3,0,0,0-.1-1.4,1.147,1.147,0,0,0-.842-.838c.012-.085.055-.126.129-.123a.452.452,0,0,0,.2-.037,1.154,1.154,0,0,1-.381-.635,1.317,1.317,0,0,0-.384-.666c.031-.109.056-.216.076-.323s.1-.157.252-.153a3.687,3.687,0,0,1-.1-1.278,4.645,4.645,0,0,1,.27-1.158,8.6,8.6,0,0,1,.512-1.106q.3-.551.591-1.115c.182-.06.3-.058.346.01s.12.046.213-.068a1.889,1.889,0,0,0,.6-.833,2.234,2.234,0,0,0,.09-.937q.194-.839.469-1.667a9.752,9.752,0,0,1,.669-1.563,7.733,7.733,0,0,1,.869-1.3,4.028,4.028,0,0,1,1.066-.914,4.807,4.807,0,0,1,1.032-.8,7.039,7.039,0,0,1,1.378-.631,7.846,7.846,0,0,1,1.549-.351,5.3,5.3,0,0,1,1.511.014c.108.03.167,0,.178-.1a.155.155,0,0,1,.142-.156,13.031,13.031,0,0,1,2.847.329,6.3,6.3,0,0,1,2.225.992,21.811,21.811,0,0,1,1.33,1.886,11.544,11.544,0,0,1,1.059,2.151,8.926,8.926,0,0,1,.516,2.381,7.189,7.189,0,0,1-.266,2.542,8.354,8.354,0,0,1-2.412,2.469,18.858,18.858,0,0,1-3.2,1.718,32.049,32.049,0,0,1-3.606,1.275q-1.875.542-3.635,1.136.119.838.187,1.787a12.841,12.841,0,0,1,0,1.916,11.425,11.425,0,0,1-.3,1.9,6.887,6.887,0,0,1-.709,1.771,4.687,4.687,0,0,0-1.277.26q-.652.226-1.165.437Q-1075.706,3550.137-1075.954,3550.023Zm8.627-18.378a7,7,0,0,0-2.006.352,3.733,3.733,0,0,0-1.661,1.085c-.059.237-.1.446-.137.627a4.721,4.721,0,0,1-.12.5q-.071.227-.157.457c-.057.152-.117.326-.182.521a.478.478,0,0,0,.279.254.479.479,0,0,1,.278.253,4.211,4.211,0,0,1,.835-.417,8.39,8.39,0,0,1,.853-.263c.285-.072.569-.154.853-.248a4.208,4.208,0,0,0,.868-.4,6.138,6.138,0,0,1,.942-.46c.331-.13.659-.263.979-.4a9.515,9.515,0,0,0,.926-.459,2.6,2.6,0,0,0,.752-.629,3.833,3.833,0,0,0-1.381-.577,7.124,7.124,0,0,0-1.681-.194Zm11.73,16.238a1.368,1.368,0,0,0-.593-.11.968.968,0,0,0-.253-.759q-.306-.376-.611-.737a2.113,2.113,0,0,1-.423-.742.683.683,0,0,1,.284-.736.866.866,0,0,1-.321-.659.419.419,0,0,0,.323.093,3.789,3.789,0,0,1,0-1.351q.12-.8.181-1.574a4.351,4.351,0,0,0-.1-1.4,1.149,1.149,0,0,0-.842-.838c.012-.085.054-.126.129-.125a.452.452,0,0,0,.2-.036,1.16,1.16,0,0,1-.38-.635,1.326,1.326,0,0,0-.385-.667c.03-.107.056-.216.075-.323s.1-.156.251-.151a3.765,3.765,0,0,1-.1-1.278,4.651,4.651,0,0,1,.271-1.16,8.447,8.447,0,0,1,.512-1.106q.3-.55.589-1.115c.183-.06.3-.056.347.012s.12.044.213-.07a1.881,1.881,0,0,0,.6-.832,2.272,2.272,0,0,0,.091-.938c.13-.557.285-1.114.468-1.667a9.779,9.779,0,0,1,.669-1.562,7.793,7.793,0,0,1,.868-1.3,4.053,4.053,0,0,1,1.067-.912,4.792,4.792,0,0,1,1.031-.8,7.135,7.135,0,0,1,1.379-.633,7.977,7.977,0,0,1,1.55-.351,5.254,5.254,0,0,1,1.51.015c.107.03.168,0,.179-.1a.151.151,0,0,1,.141-.156,13.007,13.007,0,0,1,2.846.329,6.3,6.3,0,0,1,2.227.992,21.75,21.75,0,0,1,1.329,1.887,11.407,11.407,0,0,1,1.058,2.151,8.873,8.873,0,0,1,.518,2.38,7.193,7.193,0,0,1-.267,2.542,8.36,8.36,0,0,1-2.411,2.469,18.951,18.951,0,0,1-3.2,1.72,32.271,32.271,0,0,1-3.6,1.273q-1.875.545-3.636,1.137.12.836.189,1.787a13.3,13.3,0,0,1,0,1.917,11.353,11.353,0,0,1-.3,1.9,6.855,6.855,0,0,1-.71,1.772,4.64,4.64,0,0,0-1.276.259q-.652.226-1.164.437C-1055.26,3548.042-1055.432,3547.96-1055.6,3547.883Zm8.626-18.377a7.023,7.023,0,0,0-2,.351,3.725,3.725,0,0,0-1.662,1.086c-.058.237-.105.446-.139.627a4.268,4.268,0,0,1-.119.5c-.047.152-.1.3-.157.456s-.117.326-.181.523a.475.475,0,0,0,.278.252.476.476,0,0,1,.278.254,4.268,4.268,0,0,1,.836-.417,8.611,8.611,0,0,1,.851-.262q.429-.108.855-.247a4.264,4.264,0,0,0,.867-.406,6.3,6.3,0,0,1,.942-.46q.5-.194.98-.4a9.822,9.822,0,0,0,.926-.46,2.583,2.583,0,0,0,.751-.628,3.819,3.819,0,0,0-1.38-.578,7.19,7.19,0,0,0-1.688-.193Zm8.691,16.007a4.7,4.7,0,0,1-.534-.886,8.235,8.235,0,0,1-.39-1.012q-.166-.532-.342-1.016a.927.927,0,0,1,.119-.657,4.878,4.878,0,0,1,.363-.431,12.448,12.448,0,0,0,1.323-.265c.386-.1.765-.207,1.13-.308s.734-.2,1.1-.288a8.727,8.727,0,0,1,1.2-.2q.365-1.014.676-1.942t.6-1.775a8.5,8.5,0,0,1,.33-1.5c.15-.465.3-.911.441-1.334s.267-.845.37-1.264a5.162,5.162,0,0,0,.145-1.32q.259-1.126.458-2.074a12.083,12.083,0,0,0,.22-2.239q-1.161.31-1.858.557a5.211,5.211,0,0,0-.991.434,2.1,2.1,0,0,1-1.006-.146,1.911,1.911,0,0,1-.63-.468,3.384,3.384,0,0,1-.448-.677c-.132-.258-.286-.524-.461-.8a1.66,1.66,0,0,0-.025-.83,1.135,1.135,0,0,0-.456-.754.577.577,0,0,0,.329-.459.72.72,0,0,0-.027-.546,5.527,5.527,0,0,1,1.1-.32l1.155-.216q.571-.107,1.09-.24a2.2,2.2,0,0,0,.867-.421q1.61-.234,3.358-.479t3.232-.5a4.1,4.1,0,0,0,1.309.051,11.575,11.575,0,0,1,1.471-.061,3.748,3.748,0,0,1,1.347.267,1.678,1.678,0,0,1,.906,1,1.433,1.433,0,0,1,.726.176.808.808,0,0,1,.343.421,2.146,2.146,0,0,1,.108.584q.018.33.051.639a4.117,4.117,0,0,1-1.2.739,12.163,12.163,0,0,1-1.622.547,17.777,17.777,0,0,1-1.861.384q-.974.151-1.9.279a20.622,20.622,0,0,1-.29,2.466q-.244,1.425-.508,2.788t-.452,2.435a4.891,4.891,0,0,0-.122,1.379c-.157.5-.286.92-.385,1.266s-.192.669-.275.972-.168.6-.252.89-.191.622-.319.993l2.113-.223a.634.634,0,0,0,.328.438,3.516,3.516,0,0,0,.489.168,2.045,2.045,0,0,1,.476.185.514.514,0,0,1,.25.43,1.1,1.1,0,0,1,.794.387,1,1,0,0,1,.149.661,2.358,2.358,0,0,1-.234.763c-.13.265-.258.5-.382.7a.607.607,0,0,0-.514.2,3.819,3.819,0,0,0-.419.5,7.37,7.37,0,0,0-1.775.156c-.574.123-1.106.232-1.6.325-.1.031-.136.093-.106.184a.176.176,0,0,1-.041.21,5.318,5.318,0,0,0-2-.042,12.954,12.954,0,0,0-2.02.511q-1.016.342-2.076.721a10.667,10.667,0,0,1-2.175.528A2.2,2.2,0,0,1-1038.279,3545.513Zm18.294-2.315a7,7,0,0,1-.971-1.171,11.851,11.851,0,0,1-.769-1.333,10.488,10.488,0,0,0-.675-1.186c-.009-.082.023-.124.1-.12a1.341,1.341,0,0,0,.2-.006,2.778,2.778,0,0,1-.307-.675,1.355,1.355,0,0,0-.362-.605q.7-2.022,1.5-4.227t1.618-4.475q.815-2.269,1.625-4.57t1.553-4.515a14.524,14.524,0,0,1,1.77.552,8.35,8.35,0,0,1,1.611.821,5.787,5.787,0,0,1,1.3,1.167,4.29,4.29,0,0,1,.811,1.6c-.029.128-.076.176-.143.14s-.116-.008-.149.079a.808.808,0,0,1,.2.246.269.269,0,0,1,0,.157.557.557,0,0,0-.009.206.675.675,0,0,0,.191.325c-.105-.009-.176.013-.212.069s-.108.069-.217.038a1.25,1.25,0,0,1,.166.675,1.615,1.615,0,0,1-.139.47,2.045,2.045,0,0,0-.157.457,1.077,1.077,0,0,0,.113.632.244.244,0,0,0-.167.065.457.457,0,0,0-.066.116.37.37,0,0,1-.066.116c-.027.035-.084.045-.17.034a10.563,10.563,0,0,1,.234,1.625q.056.827.114,1.684t.185,1.757a10.111,10.111,0,0,0,.445,1.838,6.453,6.453,0,0,0,1.948-2.247,11.051,11.051,0,0,0,1.014-2.9,21.829,21.829,0,0,0,.4-3.342q.081-1.766.171-3.6a2.506,2.506,0,0,0,.456-.9,8.633,8.633,0,0,0,.235-1.06c.055-.364.111-.73.167-1.1a3.954,3.954,0,0,1,.285-1.02,2.083,2.083,0,0,1,.983.226,5.9,5.9,0,0,1,.792.514,7.759,7.759,0,0,0,.779.531,2.1,2.1,0,0,0,.971.275q.5.576.935,1.111a3.461,3.461,0,0,1,.632,1.238,2.523,2.523,0,0,0-.208.714q-.054.382-.124.767a2.871,2.871,0,0,1-.223.715,1.615,1.615,0,0,1-.473.583,13.9,13.9,0,0,1-.1,1.77q-.1.828-.175,1.621t-.109,1.645a10.408,10.408,0,0,0,.1,1.844c-.123.619-.266,1.259-.428,1.915a11.98,11.98,0,0,0-.313,1.808,3.387,3.387,0,0,0-.811,1.248q-.27.72-.571,1.443c-.094.093-.156.116-.181.066s-.125-.075-.291-.079c.04.185.017.307-.071.368s-.067.212.062.449a3.308,3.308,0,0,0-.863.752,6.829,6.829,0,0,1-.808.838,2.709,2.709,0,0,1-1.071.569,3.425,3.425,0,0,1-1.691-.09,15.438,15.438,0,0,1-3.006-2.292,11.388,11.388,0,0,1-2.289-3.248.752.752,0,0,0-.425.454,5.94,5.94,0,0,0-.211.682c-.058.236-.12.453-.184.647a.4.4,0,0,1-.343.319,1.373,1.373,0,0,1-.179.537c-.1.168-.191.334-.278.5a1.807,1.807,0,0,0-.18.538.9.9,0,0,0,.145.614.992.992,0,0,0-.307.677c-.014.263-.038.522-.074.778a1.508,1.508,0,0,1-.26.671,1,1,0,0,1-.8.32c-.072.113-.08.176-.027.191s.11.1.169.265a.926.926,0,0,0-.614.127,1.389,1.389,0,0,1-.447.236A2.493,2.493,0,0,1-1019.985,3543.2Zm21.862-3.508a8.358,8.358,0,0,1-2.279-4.945c.01-.106-.018-.172-.083-.2a.594.594,0,0,1-.168-.094,1.974,1.974,0,0,1,.029-.631,1.59,1.59,0,0,0-.045-.717,25.828,25.828,0,0,1,1.792-4.039,14.381,14.381,0,0,1,2.611-3.4,2.346,2.346,0,0,0,.4-.5c.1-.167.195-.329.294-.486a2.266,2.266,0,0,1,.347-.429,1.25,1.25,0,0,1,.534-.293,9.749,9.749,0,0,1,1.693-1.842q1.009-.861,2.118-1.669t2.231-1.648a15.008,15.008,0,0,0,2-1.78.642.642,0,0,0,.558.082.645.645,0,0,1,.419-.059,1.7,1.7,0,0,0,.817.746c.316.125.643.246.981.368a5.033,5.033,0,0,1,.96.465,2.031,2.031,0,0,1,.731.819c-.145.015-.207.073-.186.177a1.605,1.605,0,0,0,.113.333,1.074,1.074,0,0,1,.1.335c.012.1-.076.165-.263.185a.194.194,0,0,0,.241.195.193.193,0,0,1,.24.195.494.494,0,0,1-.046.3.447.447,0,0,0,.022.36,14.993,14.993,0,0,1-1.564,1.122q-.869.547-1.826,1.149t-1.94,1.288a20,20,0,0,0-1.927,1.538q-.947.855-1.894,1.864t-1.8,2.123q-.857,1.11-1.584,2.271a18.168,18.168,0,0,0-1.209,2.249.983.983,0,0,0,.2.262.949.949,0,0,1,.2.261,17.412,17.412,0,0,0,2.206-.247,7.225,7.225,0,0,1,2.066-.076.4.4,0,0,0,.129-.265.287.287,0,0,1,.164-.237,26.147,26.147,0,0,0,3.874-1.114l3.626-1.37q-.581-.16-1.03-.238c-.138-.112-.145-.22-.019-.328a1.5,1.5,0,0,0,.3-.329,2.466,2.466,0,0,1-.9-.659,2.441,2.441,0,0,1-.516-1.171.561.561,0,0,0,.172-.458.478.478,0,0,0-.26-.381c-.107-.03-.171-.024-.187.019a.629.629,0,0,0-.033.13.361.361,0,0,1-.049.131c-.027.044-.084.05-.171.017a1.389,1.389,0,0,1,.1-.575,1.731,1.731,0,0,0,.13-.548l2.4-1.981a9,9,0,0,0,1.063.548q.626.28,1.315.553l1.41.559q.721.286,1.347.565a3.754,3.754,0,0,1,1.027.5c.294.211.58.432.855.665s.551.461.826.684a3.2,3.2,0,0,0,.967.527,1.656,1.656,0,0,0,.147.8,1.435,1.435,0,0,1,.141.74,6.665,6.665,0,0,1-1.241,1.938,9.262,9.262,0,0,1-1.749,1.456,13.629,13.629,0,0,1-2.129,1.119q-1.143.482-2.352.938t-2.43.947q-1.22.489-2.383,1.083c-.352.037-.653.078-.9.127s-.482.1-.7.167-.447.132-.672.2a7.166,7.166,0,0,1-.735.172c-.106-.009-.172.018-.2.084a.4.4,0,0,1-.122.169,7.737,7.737,0,0,1-1.109.211l-.839.088a3.455,3.455,0,0,0-.888.219,2.609,2.609,0,0,1-.86.185c-.17.011-.337.016-.5.016A5.693,5.693,0,0,1-998.123,3539.69Zm38.75-1.731-.278-.254a1.588,1.588,0,0,0-.305-.22,1.692,1.692,0,0,0-.488-.153.663.663,0,0,0-.144-.472.642.642,0,0,0-.476-.342c.085-.178.022-.385-.192-.625a3.062,3.062,0,0,1-.528-.839c.006-.148.005-.3,0-.456a2.848,2.848,0,0,1,.016-.441,1.2,1.2,0,0,1,.1-.372.506.506,0,0,1,.287-.251,1.8,1.8,0,0,0-.33-.75,1.036,1.036,0,0,0,.315-.583c.04-.225.073-.454.1-.687a5.12,5.12,0,0,1,.132-.69,1.256,1.256,0,0,1,.347-.586,1.058,1.058,0,0,0-.141-.142.307.307,0,0,1-.085-.211,7.37,7.37,0,0,0,.514-1.389,9.19,9.19,0,0,0,.185-1.087q.054-.524.116-1.128a8.861,8.861,0,0,1,.34-1.544,2.548,2.548,0,0,1,.02-1.008c.072-.3.153-.6.237-.888a4.959,4.959,0,0,0,.171-.914,2.817,2.817,0,0,0-.146-1.085,1.059,1.059,0,0,0-.722.454,1.726,1.726,0,0,0-.208.87.982.982,0,0,1-.69.307,2.074,2.074,0,0,0-.766.192,5.716,5.716,0,0,1-2.317-1.266,7.792,7.792,0,0,1-1.62-2.122,3.332,3.332,0,0,1,.844-1.519,7.088,7.088,0,0,1,1.437-1.141,10.28,10.28,0,0,1,1.75-.843c.624-.233,1.231-.445,1.819-.632.128.028.19.022.186-.02s.049-.025.163.046q1.083-.459,2.509-.939a11.36,11.36,0,0,1,3.083-.559,1.175,1.175,0,0,1,.514-.2c.207-.031.424-.06.651-.083s.445-.052.651-.084a1.544,1.544,0,0,0,.517-.165.841.841,0,0,0,.588.2,1.789,1.789,0,0,1,.811.245c.084.012.081-.024-.012-.108s-.089-.154.01-.2a1.36,1.36,0,0,1,.734.11,4.015,4.015,0,0,1,.619.359c.193.137.372.26.541.367a.8.8,0,0,0,.533.133,3.942,3.942,0,0,0,.735.567q.419.253.809.528a3.037,3.037,0,0,1,.663.62,1.559,1.559,0,0,1,.321.815c-.008.126.041.195.148.2a.291.291,0,0,1,.238.165,4.447,4.447,0,0,1-.149,2.026,6.892,6.892,0,0,1-.818,1.642,15.242,15.242,0,0,1-1.119,1.453,11.419,11.419,0,0,0-1.087,1.466,5.583,5.583,0,0,0,.944.765q.522.337,1.059.658a11.347,11.347,0,0,1,1.032.693,4.205,4.205,0,0,1,.861.868.538.538,0,0,0,.43.206,4.822,4.822,0,0,0,.344.734c.141.247.276.484.4.712a2.216,2.216,0,0,1,.253.616.544.544,0,0,1-.105.483.493.493,0,0,1,.289.363,1.407,1.407,0,0,1,.044.42q-.6.911-.809,1.279c-.142.246-.249.425-.32.536a3.589,3.589,0,0,1-.219.307c-.074.09-.243.277-.507.555a31.1,31.1,0,0,1-3.247,2.148,14.17,14.17,0,0,1-3.6,1.462,1.124,1.124,0,0,1-.413.406,3.753,3.753,0,0,1-.643.3c-.242.087-.5.168-.776.238s-.525.139-.749.2a.244.244,0,0,1-.192-.185.244.244,0,0,0-.193-.184c.006.251-.089.392-.285.424a1.971,1.971,0,0,1-.745-.064,5,5,0,0,1-.948-.34q-.5-.231-.863-.443a5.458,5.458,0,0,1-.326.632,1.433,1.433,0,0,1-.437.485l-.646-.026a.446.446,0,0,0-.372.2A1.261,1.261,0,0,1-959.372,3537.959Zm7.587-11.074a12.287,12.287,0,0,0-1.653.567,11.153,11.153,0,0,1-1.576.542q-.294,1.1-.594,2.419t-.577,2.575a11.64,11.64,0,0,0,2-.682q.9-.41,1.731-.889t1.626-.957q.8-.476,1.664-.912a1,1,0,0,1,.342-.634c.191-.167.384-.328.577-.485a2.545,2.545,0,0,0,.481-.5.823.823,0,0,0,.083-.7,6.168,6.168,0,0,0-2.241-.55l-.167,0A6.579,6.579,0,0,0-951.785,3526.885Zm-2.848-8.419a10.16,10.16,0,0,0-3.016,1.511,9.95,9.95,0,0,0,1.388.8,2.646,2.646,0,0,1,1.124.983,9.832,9.832,0,0,0,2.452-1.782,13.993,13.993,0,0,0,1.8-2.249A15.513,15.513,0,0,0-954.633,3518.466Zm14.6,15.181-.005-.345.193-.868q.1-.545.232-1.077a2.354,2.354,0,0,1,.525-.983q.063-.289.268-.892t.7-1.817q.4-.953.642-1.513t.4-.858a4.561,4.561,0,0,0-.984-1q-.595-.881-1.043-1.7a12.63,12.63,0,0,1-.7-1.483,6.69,6.69,0,0,0-.41-1.5l-.271-.788a3.805,3.805,0,0,1-.182-.829,2.5,2.5,0,0,1-.277-.537l.024-.38a.931.931,0,0,0,.008-.677c-.081-.274-.18-.552-.293-.833-.089-.263-.177-.542-.26-.837a3.648,3.648,0,0,1-.14-.88,2.218,2.218,0,0,1,.145-.864,1.666,1.666,0,0,1,.627-.758l.287-.251.33.155a7.219,7.219,0,0,0,.693.3l.654.246q.392.148.786.31t.856.365l.332.185.006.345a.523.523,0,0,0,.047.153.388.388,0,0,0,.109.145l.351.058.077.43.039.374a1.621,1.621,0,0,0,.072.385.728.728,0,0,0,.149.22l.2.388a4.805,4.805,0,0,0,.2.984c.092.284.2.566.308.848a6.6,6.6,0,0,1,.342.859,3.064,3.064,0,0,1,.135.976,1.478,1.478,0,0,0,.343-.319,1.774,1.774,0,0,1,.126-.139,2.052,2.052,0,0,1,.159-.142l1.865-3.181-.1-.366.7-.827c.189-.189.367-.379.536-.575a2.45,2.45,0,0,0,.4-.656l.157-.3a5.814,5.814,0,0,1,3.364-2.678l.515-.181.208.482a1.631,1.631,0,0,0,.687.7c.322.186.672.363,1.045.534l.364.182a1.437,1.437,0,0,1,.246.54,1.255,1.255,0,0,1,0,.313l.2.389a3.562,3.562,0,0,1-.61,1.368,11.134,11.134,0,0,1-.762.818c-.208.211-.4.419-.563.625a2.152,2.152,0,0,0-.369.667l-.216.337a1.872,1.872,0,0,0-.869,1.285l-.08.449-.465.048c-.021,0-.068.055-.142.158a3.354,3.354,0,0,0-.3.707,5.362,5.362,0,0,1-.337.522l-.153.19c-.031.107-.057.2-.079.29s-.048.194-.076.322l-.161.268a1.8,1.8,0,0,0-.352.525c-.067.165-.142.354-.224.573-.062.195-.137.4-.219.6a2.432,2.432,0,0,1-.374.621l.1.335-.226.244a2.114,2.114,0,0,0-.378.589q-.152.346-.3.708c-.1.262-.208.525-.326.789a2.892,2.892,0,0,1-.487.742,8.014,8.014,0,0,1-.3.912,4.1,4.1,0,0,1-.5.806,8.525,8.525,0,0,1-1.435,3.387,1.792,1.792,0,0,1-.133.69,7,7,0,0,1-.293.644c-.033.087-.07.18-.112.278s-.071.171-.087.215l-.057.35a2.787,2.787,0,0,1-.33.6c-.119.158-.235.306-.345.445a.768.768,0,0,0-.156.174c-.045.067-.085.124-.122.17l-.509.242A3.607,3.607,0,0,1-940.03,3533.647Zm16.111.507a2.966,2.966,0,0,0-.534-.291,2.979,2.979,0,0,1-.511-.982,1.347,1.347,0,0,0-.211-.512l-.481-.391.343-.318-.436-.551q.343-.319.517-.463a2.17,2.17,0,0,0,.3-.3,2.717,2.717,0,0,0,.257-.389q.132-.233.423-.767l.237-.434.4.178a1.955,1.955,0,0,0,.593.112c.285.021.533.042.746.062a6.979,6.979,0,0,0,1,.13,1.491,1.491,0,0,1,.8.246l.151.236q.087.242.142.456c.036.144.073.3.11.46a11.062,11.062,0,0,1-.279,1.224c-.047.152-.078.249-.1.293a.244.244,0,0,0-.021.1.152.152,0,0,0,.039.074.624.624,0,0,1,.059.26l-.116.39a1.26,1.26,0,0,1-.321.38,3.427,3.427,0,0,1-.4.261,1.225,1.225,0,0,1-.191.129.536.536,0,0,0-.16.127l-.054.383-.429.108a3.825,3.825,0,0,1-.887.219l-.342.036Q-923.683,3534.317-923.919,3534.154Zm1.01-8.026a7.992,7.992,0,0,1-1.159-.569,6.011,6.011,0,0,1-.168-1.443q-.012-.863.014-1.809t.06-1.813q.036-.868.035-1.465a3.522,3.522,0,0,0,.376-.605,1.491,1.491,0,0,0,.121-.485c.014-.167.018-.378.013-.629s.009-.608.044-1.073a1.073,1.073,0,0,0-.11-.6.815.815,0,0,1-.1-.508.4.4,0,0,1,.182-.208.288.288,0,0,0,.149-.236,1.225,1.225,0,0,0,0-.644.868.868,0,0,1,.032-.584,6.528,6.528,0,0,0,.305-.834,2.251,2.251,0,0,0,.052-1.151,4.069,4.069,0,0,0,.476-.553,5.932,5.932,0,0,1,.458-.566,2.536,2.536,0,0,1,.55-.451,1.826,1.826,0,0,1,.776-.239,3.04,3.04,0,0,1,.443.613l.3.566a2.207,2.207,0,0,0,.35.5,1.556,1.556,0,0,0,.605.376,3.647,3.647,0,0,1-.006.692q-.035.412-.054.822a2.917,2.917,0,0,0,.045.734.449.449,0,0,0,.323.391,19.979,19.979,0,0,0-.47,2.846c-.057.76-.1,1.483-.118,2.164s-.067,1.405-.134,2.167a20.955,20.955,0,0,1-.49,2.817,2.947,2.947,0,0,1-.694,1.471,1.7,1.7,0,0,1-1.016.5c-.071.007-.144.011-.216.011A2.6,2.6,0,0,1-922.909,3526.128Zm-202.83-.9c-.195-.062-.357-.114-.487-.152a.828.828,0,0,1-.373-.26.286.286,0,0,0-.164-.061.287.287,0,0,1-.163-.061,1.917,1.917,0,0,1-.521-.166l-.361-.151c0-.209-.005-.355-.014-.438a2.9,2.9,0,0,1-.468-.706,7.274,7.274,0,0,1-.32-.814c-.086-.221-.165-.423-.237-.6a1.584,1.584,0,0,0-.285-.474,11.279,11.279,0,0,1,.02-3.693q.312-1.525.724-2.983.232-.777.43-1.585t.331-1.637l.306-.377a2.18,2.18,0,0,1,.256-.247,2.139,2.139,0,0,1,.073-.809c.075-.27.162-.545.258-.828.065-.174.126-.348.181-.521a1.935,1.935,0,0,0,.094-.45c-.145.015-.274.034-.386.056s-.231.049-.353.083a3.479,3.479,0,0,1-.767.176,1.825,1.825,0,0,1-.406.011,1.3,1.3,0,0,1-.452.19q-.217.038-.434.06l-.372.04-.374.038a1.545,1.545,0,0,0-.581.156l-.559.058c-.082.01-.176.019-.279.03l-.372.039-.373.039a3.63,3.63,0,0,1-.565.012,1.991,1.991,0,0,1-.677-.165l-.244-.225c-.148-.215-.275-.328-.38-.337l-.352-.058-.036-.341a1.849,1.849,0,0,0-.156-.439q-.1-.194-.219-.433a7.565,7.565,0,0,1-.364-.779,3.777,3.777,0,0,1-.232-1.013,1.334,1.334,0,0,1,.108-.467,1.48,1.48,0,0,1,.162-.252l.065-.573.467-.049a4.271,4.271,0,0,0,.516-.022l.512-.054q1.182-.125,2.415-.348t2.526-.485q1.409-.337,3.047-.6c.08-.239.131-.392.157-.456s.053-.143.086-.23l.321-.222a1.661,1.661,0,0,1,1.013.066,2.354,2.354,0,0,1,.476.342c.535-.1,1.077-.213,1.63-.344s1.123-.27,1.716-.416q1.226-.286,2.484-.575a20.782,20.782,0,0,1,2.471-.417q.528-.056,1-.073c.313-.013.616-.013.911,0l.4.24a1.953,1.953,0,0,0,.353.372,4.155,4.155,0,0,0,.474.327c.077.049.155.1.232.158a2.561,2.561,0,0,1,1.115-.8,5.56,5.56,0,0,0,.718,1.307q.42.553.9,1.068t.972,1.029a9.189,9.189,0,0,1,.939,1.158q.045.718.033,1.661c-.006.629-.034,1.271-.08,1.925s-.094,1.288-.146,1.9-.106,1.132-.166,1.558a.26.26,0,0,0,.239.179q.191.027.1.351.878-.313,1.836-.617t1.885-.607q.924-.3,1.813-.677a11.165,11.165,0,0,0,1.653-.865q.03-1.512.156-3a8.882,8.882,0,0,0-.248-2.959,1.388,1.388,0,0,0,.272-.406.575.575,0,0,1,.342-.319,5.21,5.21,0,0,1-.313-1.491,5.2,5.2,0,0,1,.109-1.5,3.39,3.39,0,0,1,.573-1.27,2.177,2.177,0,0,1,1.08-.789,8.506,8.506,0,0,1,.848,1.2c.255.434.51.875.767,1.318a14.246,14.246,0,0,0,.807,1.251,3.613,3.613,0,0,0,1.028.96q.208,1.078.389,2.206t.34,2.337q-.133,1.429-.351,2.787a17.934,17.934,0,0,0-.218,2.866,2.3,2.3,0,0,0-.333.711c-.076.27-.147.54-.214.808a7.2,7.2,0,0,1-.246.8,2.055,2.055,0,0,1-.4.672,1.72,1.72,0,0,1,.133.818,1.423,1.423,0,0,0,.3.9,3.314,3.314,0,0,1-.064,1.625,3.3,3.3,0,0,1-.694,1.172,4.023,4.023,0,0,1-1.106.838q-.64.336-1.27.62a6.1,6.1,0,0,1-.616-.328,1.744,1.744,0,0,0-.668-.228l.125-.3a8.045,8.045,0,0,1-1.211-1.208,2.724,2.724,0,0,1-.587-1.557c0-.02,0-.163.018-.426s.032-.543.052-.838.045-.576.069-.839.036-.408.033-.428a8.61,8.61,0,0,0-1.759.592q-.9.409-1.746.891t-1.562.98q-.717.5-1.153.828a2.617,2.617,0,0,1-.1.545c-.073.3-.165.62-.277.956a5.208,5.208,0,0,1-.391.906c-.15.267-.319.4-.508.4a.972.972,0,0,0,.15.22q.069.071.03.3a4.182,4.182,0,0,0-.9.5,5.889,5.889,0,0,1-.811.509,2.411,2.411,0,0,1-.932.256,2.978,2.978,0,0,1-1.268-.261.521.521,0,0,0-.228-.367,2.578,2.578,0,0,0-.42-.255c-.143-.069-.27-.129-.38-.18s-.169-.108-.175-.171a.088.088,0,0,1-.131-.049.378.378,0,0,1-.034-.185.249.249,0,0,1,.076-.166.181.181,0,0,1,.2-.02,2.555,2.555,0,0,1-.608-.848,5.089,5.089,0,0,0-.524-.951.475.475,0,0,0,.1-.277,2.884,2.884,0,0,1,.044-.334.54.54,0,0,1,.1-.246c.046-.057.115-.049.207.026a1.259,1.259,0,0,1-.058-.56,3.38,3.38,0,0,1,.1-.418,1.763,1.763,0,0,0,.069-.385.732.732,0,0,0-.14-.426,4.379,4.379,0,0,0,.592-1.837,11.477,11.477,0,0,0,.037-1.748,2.411,2.411,0,0,0,.4-.8,4.586,4.586,0,0,0,.194-.995,5.4,5.4,0,0,0-.01-.988,1.936,1.936,0,0,0-.2-.749.162.162,0,0,1,.124-.154.8.8,0,0,1,.266-.013,22.9,22.9,0,0,0,.005-2.8q-.068-1.26-.023-2.458c-.066.029-.137.06-.21.094-.23,0-.408.011-.532.024l-.436.045a17.615,17.615,0,0,0-2.006.337q-1.077.238-2.084.5-.736.172-1.412.32l-1.228.271q-.226.84-.411,1.489t-.4,1.3c-.142.435-.274.871-.4,1.315s-.227.928-.317,1.463a9.018,9.018,0,0,0-.509,1.137,5.7,5.7,0,0,0-.282,1.208,3.28,3.28,0,0,0-.547,1.221c-.091.429-.173.792-.246,1.094l-.075.479a1.131,1.131,0,0,0-.228.369,1.082,1.082,0,0,1-.143.3,4.839,4.839,0,0,1-.167.8c-.03.108-.06.221-.089.339a.433.433,0,0,0,0,.268,1.414,1.414,0,0,1-.13.548,2.225,2.225,0,0,1,.007.375c-.007.126-.015.253-.022.379a3.682,3.682,0,0,0-.052.4.578.578,0,0,0,.065.322c.071.077.143.154.212.23a1.079,1.079,0,0,1,.189.294.388.388,0,0,0,.166.077.386.386,0,0,1,.165.076.946.946,0,0,0,.492.2l.35.341a2.061,2.061,0,0,1-.159,1.776,2.245,2.245,0,0,1-1.79.91l-.439.014A1.78,1.78,0,0,1-1125.739,3525.231Zm34.71-4.448a2.587,2.587,0,0,0-.581-.3l-.212-.229a1.553,1.553,0,0,1-.2-.435,3.328,3.328,0,0,0-.139-.41,1.243,1.243,0,0,0-.245-.54l-.515-.418.371-.353-.037-.656q.578-1.979,1.218-3.8t1.35-3.756c.145-.413.3-.827.45-1.241s.305-.838.448-1.273a1.065,1.065,0,0,1-.058-.261,1.027,1.027,0,0,1,.027-.332,11.143,11.143,0,0,0,.582-1.192q.211-.526.4-1.08c.144-.433.3-.869.476-1.307a6.766,6.766,0,0,1,.7-1.3l.184-.334.345,0a1.942,1.942,0,0,1,.253-.136,1.14,1.14,0,0,1,.352-.084l.569.035a5.5,5.5,0,0,0,1.677-1.544,17.639,17.639,0,0,0,1.376-2.3l.317-.568.53.26a2.079,2.079,0,0,0,.517.133c.235.039.48.086.738.144.447.057.883.133,1.311.223a2.383,2.383,0,0,1,1.021.444l.185.263q.1.334.175.61c.051.183.106.365.168.548q.193.638.352,1.266a13.767,13.767,0,0,1,.274,1.4q.22.605.427,1.228t.4,1.232q.251.884.523,1.688a9.646,9.646,0,0,0,.663,1.518,1.2,1.2,0,0,1,.376-.008,2.707,2.707,0,0,1,.85-.278l.4-.074.163.36a1.233,1.233,0,0,0,.175.17,1.83,1.83,0,0,0,.238.164,1.4,1.4,0,0,1,.751.125,3.4,3.4,0,0,1,.424.286c.045.036.1.078.17.124a.929.929,0,0,0,.168.092l.581.159-.249.623a4.6,4.6,0,0,1-.906,1.383,6.478,6.478,0,0,1-1.462,1.192,2.112,2.112,0,0,1,.12.395,2.767,2.767,0,0,0,.124.428q.188.608.337,1.268a5.68,5.68,0,0,1,.13,1.385,7.586,7.586,0,0,1-.578,1.521,5.873,5.873,0,0,1-.873,1.255,5.131,5.131,0,0,1-1.2.975,3.925,3.925,0,0,1-1.454.514,2.109,2.109,0,0,1-.661-.15,3.648,3.648,0,0,1-.383-.211,2,2,0,0,0-.43-.207l-.424-.144.075-.479a.491.491,0,0,0-.061-.434,2.5,2.5,0,0,0-.5-.45,1.317,1.317,0,0,1-.239-.18c-.07-.065-.151-.135-.242-.21l-.7-.649,1-.388a2.38,2.38,0,0,0,1.177-.768,2.086,2.086,0,0,0,.1-1.408,3.233,3.233,0,0,0-1.28.086q-.485.163-.97.338-.694.261-1.363.473a7.434,7.434,0,0,1-1.478.3,7.2,7.2,0,0,1-1.129.024l-.344,0-.13-.33a.214.214,0,0,0-.091-.131l-.156-.126q-.175-.17-.425-.458a.9.9,0,0,1-.176-.768,1.568,1.568,0,0,1-.323-.688,3.769,3.769,0,0,0-.152.5c-.035.161-.066.315-.091.465l-.083.418-.4.1a.522.522,0,0,0-.089.2.24.24,0,0,0,0,.188l.16.329-.281.313a.558.558,0,0,1-.14.171,1.038,1.038,0,0,0-.142.142,4.46,4.46,0,0,1-.1.669c-.051.215-.106.431-.169.646-.067.342-.134.674-.194.995a3.275,3.275,0,0,0-.041.947l-.081.417a1.022,1.022,0,0,1-.349.414c-.146.1-.29.189-.428.265a1.373,1.373,0,0,0-.411.3l-.05.415-.46.11c-.263.09-.45.153-.562.185a2.145,2.145,0,0,1-.385.071l-.408.012C-1090.637,3521.071-1090.86,3520.9-1091.03,3520.782Zm9.489-15.405a21.9,21.9,0,0,0-1.3,1.96,15.308,15.308,0,0,0-.989,1.957l-.027.034q-.369.668-.7,1.394a2.951,2.951,0,0,1,.417-.075,3.083,3.083,0,0,0,.417-.075q1.081-.176,2-.368t1.987-.522q-.37-1.125-.791-2.29t-.89-2.341Zm13.76,12.678a6.982,6.982,0,0,1-.971-1.169,12.127,12.127,0,0,1-.769-1.333,10.167,10.167,0,0,0-.675-1.186c-.008-.083.024-.124.1-.12a1.645,1.645,0,0,0,.2-.006,2.772,2.772,0,0,1-.306-.675,1.359,1.359,0,0,0-.363-.606q.7-2.022,1.5-4.227t1.62-4.475q.815-2.269,1.624-4.57t1.552-4.514a14.53,14.53,0,0,1,1.771.551,8.46,8.46,0,0,1,1.611.821,5.738,5.738,0,0,1,1.3,1.167,4.251,4.251,0,0,1,.812,1.6c-.028.128-.075.175-.141.139s-.116-.009-.149.078a.835.835,0,0,1,.2.246.272.272,0,0,1,0,.158.555.555,0,0,0-.01.206.68.68,0,0,0,.191.325c-.105-.01-.177.013-.213.069s-.107.068-.216.038a1.249,1.249,0,0,1,.166.675,1.6,1.6,0,0,1-.139.47,2.111,2.111,0,0,0-.158.456,1.092,1.092,0,0,0,.115.633.244.244,0,0,0-.167.065.432.432,0,0,0-.067.116.405.405,0,0,1-.065.117c-.028.034-.084.045-.17.033a10.724,10.724,0,0,1,.234,1.625q.054.827.114,1.684t.185,1.757a10.05,10.05,0,0,0,.445,1.839,6.462,6.462,0,0,0,1.947-2.249,10.977,10.977,0,0,0,1.015-2.9,21.711,21.711,0,0,0,.4-3.341q.083-1.77.172-3.6a2.522,2.522,0,0,0,.456-.9,8.673,8.673,0,0,0,.234-1.062c.057-.363.111-.73.168-1.1a3.957,3.957,0,0,1,.286-1.02,2.087,2.087,0,0,1,.981.227,5.666,5.666,0,0,1,.793.514,8.212,8.212,0,0,0,.778.531,2.116,2.116,0,0,0,.972.274q.5.577.935,1.112a3.431,3.431,0,0,1,.632,1.237,2.525,2.525,0,0,0-.208.714c-.036.254-.077.511-.123.766a2.953,2.953,0,0,1-.224.716,1.625,1.625,0,0,1-.473.584,13.733,13.733,0,0,1-.1,1.77c-.067.552-.126,1.091-.176,1.62s-.086,1.078-.109,1.645a10.223,10.223,0,0,0,.1,1.844q-.185.931-.427,1.915a11.723,11.723,0,0,0-.313,1.808,3.37,3.37,0,0,0-.811,1.248q-.27.72-.572,1.443c-.094.094-.155.116-.182.066s-.122-.076-.29-.078c.039.184.016.306-.071.367s-.067.212.062.45a3.3,3.3,0,0,0-.863.751,7,7,0,0,1-.807.838,2.7,2.7,0,0,1-1.072.569,3.421,3.421,0,0,1-1.689-.09,15.345,15.345,0,0,1-3.007-2.292,11.452,11.452,0,0,1-2.29-3.248.755.755,0,0,0-.424.454,6.438,6.438,0,0,0-.211.682c-.059.237-.119.453-.184.647a.4.4,0,0,1-.343.319,1.36,1.36,0,0,1-.179.538q-.148.25-.278.5a1.76,1.76,0,0,0-.179.537.906.906,0,0,0,.143.614,1,1,0,0,0-.305.677q-.023.394-.076.778a1.5,1.5,0,0,1-.259.67.993.993,0,0,1-.8.32c-.072.113-.081.176-.027.191s.11.1.17.265a.941.941,0,0,0-.615.127,1.368,1.368,0,0,1-.446.236A2.477,2.477,0,0,1-1067.781,3518.055Zm23.153-1.4a2.162,2.162,0,0,1-.495-.231q-.236-.148-.47-.281a1.364,1.364,0,0,0-.521-.165,2.034,2.034,0,0,0-.257-.8c-.142-.248-.28-.475-.418-.68a2.97,2.97,0,0,1-.315-.61.7.7,0,0,1,.105-.641,5.5,5.5,0,0,0-.7-.4.545.545,0,0,0,.161-.426,1.042,1.042,0,0,0-.149-.362,1.733,1.733,0,0,1-.181-.373.6.6,0,0,1,.061-.462c.081-.03.112-.075.1-.135a.152.152,0,0,1,.061-.164c.013-.085.021-.148.028-.192s-.036-.09-.125-.144c-.056-.142-.036-.238.063-.29s.2-.1.3-.156a15.764,15.764,0,0,1,.28-3.47q.319-1.589.741-3.11t.841-3.058a21.15,21.15,0,0,0,.61-3.316,3.479,3.479,0,0,0,.567-1.034q.2-.587.409-1.191a7.738,7.738,0,0,1,.5-1.167,2.774,2.774,0,0,1,.888-.974,2.519,2.519,0,0,1,.524.054c.161.036.317.077.468.125a3.1,3.1,0,0,0,.483.105,2.111,2.111,0,0,0,.535.007,1.729,1.729,0,0,1,.255.335,1.256,1.256,0,0,0,.286.331l.55-.153a3.46,3.46,0,0,1,.8.78,3.532,3.532,0,0,1,.546,1.011,2.037,2.037,0,0,1,.08,1.06,1.309,1.309,0,0,1-.631.867.617.617,0,0,1,.029.279.833.833,0,0,1-.06.18.311.311,0,0,0-.03.16c.006.052.054.115.146.19a3.163,3.163,0,0,0-.547.764,4.9,4.9,0,0,0-.373.935,6.6,6.6,0,0,0-.2.964,5.891,5.891,0,0,0-.048.885,12.9,12.9,0,0,1,1.93-1.963q1.128-.937,1.954-1.745.662-.574,1.159-1.081c.33-.337.669-.656,1.015-.955s.708-.588,1.087-.868.76-.588,1.144-.922a.708.708,0,0,1,.475-.112,1.851,1.851,0,0,1,.342.12c.006-.146-.035-.232-.121-.254s-.127-.117-.123-.286a5.284,5.284,0,0,0,.908-.472q.4-.262.843-.5c.231.207.464.428.7.666a1.111,1.111,0,0,0,.882.331,1.6,1.6,0,0,0,.515.559c.191.116.38.227.569.333a1.852,1.852,0,0,1,.5.4,1.621,1.621,0,0,1,.3.8q-.1.262-.238.574a3.3,3.3,0,0,0-.219.762,12.932,12.932,0,0,1-1.381,1.354q-.708.593-1.452,1.143t-1.514,1.134a17.225,17.225,0,0,0-1.543,1.323,2.089,2.089,0,0,1-.414.547c-.171.165-.348.325-.531.48s-.353.315-.515.478a1.637,1.637,0,0,0-.364.573,1.344,1.344,0,0,0-.215.038c-.062.017-.132.04-.214.069a1.02,1.02,0,0,1-.315.442.84.84,0,0,0-.283.439,4.408,4.408,0,0,0,1.654,1.679,6.178,6.178,0,0,0,2.114.69,11.136,11.136,0,0,0,2.456.055q1.309-.105,2.707-.252c.1-.032.143-.094.122-.186s.033-.135.16-.127a3,3,0,0,1,.816.292,6.077,6.077,0,0,1,.64.4q.306.22.6.456a7.942,7.942,0,0,0,.663.48,3.787,3.787,0,0,1-.6,2.469,5.7,5.7,0,0,1-1.943,1.7,21.379,21.379,0,0,1-3.148.238,10.272,10.272,0,0,1-2.714-.406.346.346,0,0,1-.191-.17.869.869,0,0,0-.163-.2.864.864,0,0,0-.572-.065,1.083,1.083,0,0,1-.535-.007,7.045,7.045,0,0,1-.976-.463q-.682-.369-1.25-.687-.709-.459-1.369-.908a6.922,6.922,0,0,1-1.191-1.022.3.3,0,0,0-.281-.127.632.632,0,0,1-.335-.058,6.47,6.47,0,0,0-1.64,1.885q-.625,1.085-1.2,2.2a21.533,21.533,0,0,1-1.239,2.11,5.068,5.068,0,0,1-1.763,1.614,1.963,1.963,0,0,1-.2.011A1.327,1.327,0,0,1-1044.628,3516.66Zm24.117-2.991a2.03,2.03,0,0,1-.39-.557.164.164,0,0,1-.161-.187c0-.115-.054-.167-.159-.157a.444.444,0,0,1,.012-.189c.017-.044.033-.087.049-.132.076-.07.107-.121.094-.15a.2.2,0,0,0-.1-.083,1.9,1.9,0,0,1-.168-.093.131.131,0,0,1-.062-.151,1.089,1.089,0,0,0,.039-.678q-.089-.384-.161-.785a2.3,2.3,0,0,1-.018-.767,1.02,1.02,0,0,1,.465-.663,7.754,7.754,0,0,0,2.4-.377,11.841,11.841,0,0,0,2.072-.91,21.01,21.01,0,0,0,1.828-1.15q.861-.61,1.688-1.135a1.317,1.317,0,0,1,.239-.559c.119-.16.244-.313.375-.464a4.074,4.074,0,0,0,.358-.477,1.59,1.59,0,0,0,.22-.605.283.283,0,0,0-.02-.187.328.328,0,0,0-.1-.1,1.223,1.223,0,0,1-.137-.1.257.257,0,0,1-.081-.18c-.064-.014-.123-.028-.178-.043a.376.376,0,0,0-.143-.017,11.258,11.258,0,0,0-1.782-.5,8.3,8.3,0,0,1-1.588-.462.826.826,0,0,1-.733.2q-.385-.086-.927-.154a22.619,22.619,0,0,1-2.5.01,9.542,9.542,0,0,1-2.322-.415,1.358,1.358,0,0,0-.19-.311c-.072-.085-.22-.1-.443-.031a6.725,6.725,0,0,0-.511-.528,3.293,3.293,0,0,1-.484-.562c.03-.316.044-.575.044-.774a.934.934,0,0,0-.284-.614q.072-.51.12-.8a2.083,2.083,0,0,0-.066-.778,3.46,3.46,0,0,1,.711-1.458,6.179,6.179,0,0,1,1.159-1.08,8.89,8.89,0,0,1,1.361-.8q.718-.344,1.351-.6a.111.111,0,0,0-.139-.111c-.082.008-.108-.041-.077-.15a22.975,22.975,0,0,0,3.277-1.256q1.632-.768,3.355-1.42a18.625,18.625,0,0,1,3.575-.958,11.771,11.771,0,0,1,3.967.07,3.218,3.218,0,0,0,.417.68c.169.212.343.42.521.621s.34.4.486.592a1.518,1.518,0,0,1,.287.629,3.32,3.32,0,0,1,.683.667,1.383,1.383,0,0,1,.187,1.034c-.211.189-.431.38-.662.572s-.475.374-.728.547a9.251,9.251,0,0,0-2.825.045q-1.388.24-2.494.483a1.014,1.014,0,0,0-.846-.272,4.223,4.223,0,0,0-.962.258q-.5.193-.981.386a2.276,2.276,0,0,1-.925.175,1.848,1.848,0,0,1-.856.515q-.55.166-1.164.294a.193.193,0,0,0,.084.211c.067.035.086.117.057.246a1.141,1.141,0,0,0,.631.327c.257.046.517.085.783.12a2.772,2.772,0,0,1,.727.192.814.814,0,0,1,.461.5,1.92,1.92,0,0,1,.995.195,2.683,2.683,0,0,1,.751.564,2.5,2.5,0,0,1,.487.75,2.054,2.054,0,0,1,.174.752c.1.2.2.272.29.221s.2-.011.342.121a2.528,2.528,0,0,0,.679.919,4.059,4.059,0,0,1,.815,1.03q.16.926.285,1.667a3.141,3.141,0,0,1-.111,1.489,7.787,7.787,0,0,1-1.264,2.615,11.8,11.8,0,0,1-2.053,2.148,17.894,17.894,0,0,1-2.507,1.709,24.631,24.631,0,0,1-2.659,1.3.706.706,0,0,0-.3.031c-.111.032-.144-.027-.1-.178a1.282,1.282,0,0,1-.6.378,3.773,3.773,0,0,1-.771.127q-.422.029-.844.042a3.648,3.648,0,0,0-.821.118A6.233,6.233,0,0,1-1020.511,3513.669Zm31.025-2.884c-.163-.046-.329-.09-.5-.135-.107-.031-.216-.056-.322-.076s-.213-.035-.319-.045l-.4-.272a2.654,2.654,0,0,0-.256-.333c-.094-.105-.19-.216-.286-.332-.118-.134-.237-.268-.356-.4a2.911,2.911,0,0,1-.332-.469,4.884,4.884,0,0,1-.269-1.809,10.516,10.516,0,0,1,.237-1.486c.024-.171.049-.331.075-.48s.051-.31.075-.48a3.57,3.57,0,0,1-1.586-1.341,4.816,4.816,0,0,1-.753-1.775,2.6,2.6,0,0,1,.267-1.207,2.583,2.583,0,0,1,.626-.757,3.5,3.5,0,0,1,.8-.492c.28-.125.552-.231.815-.321l.483.106a2.751,2.751,0,0,0,.355.245c.122.071.24.143.352.215a.61.61,0,0,0,.349-.414c.034-.172.073-.344.118-.516.038-.234.086-.47.147-.706a4.865,4.865,0,0,1,.238-.717,1.3,1.3,0,0,1-.021-.5,3.673,3.673,0,0,1,.085-.385.792.792,0,0,0-.283-.144,2.326,2.326,0,0,1-.271-.05,1.081,1.081,0,0,1-.189,0c-.063,0-.137-.011-.222-.024a2.3,2.3,0,0,1-.667-.511c-.109-.146-.225-.3-.346-.45s-.229-.291-.325-.406a2.308,2.308,0,0,0-.315-.312l-.4-.21.148-.391a.234.234,0,0,0,.043-.179.759.759,0,0,0-.158-.313,1.175,1.175,0,0,1-.093-.586l.023-.38c.179-.291.276-.46.292-.5l.279-.343c.463-.174.936-.365,1.416-.572s.951-.419,1.41-.635.928-.434,1.407-.652.962-.415,1.447-.591a1.064,1.064,0,0,1,.516-.321c.194-.052.372-.1.535-.135a2.508,2.508,0,0,0,.4-.073.417.417,0,0,0,.263-.186q.509-.241.993-.417.906-.346,2.393-.848a25.08,25.08,0,0,1,3.367-.857l.648-.1a1.461,1.461,0,0,0,.375-.024c.122-.023.247-.041.37-.054a2.213,2.213,0,0,1,2.25.769,2.327,2.327,0,0,1,.6.329c.182.139.352.273.514.4q.172.139.307.235a2.278,2.278,0,0,0,.235.148l.275.222a2.016,2.016,0,0,1,.278,1.448.767.767,0,0,1-.358.478c-.141.055-.282.113-.422.169l-.381.261c-.272.007-.475.019-.609.032l-.451.048q-.932.1-2.148.335t-2.47.573q-1.253.336-2.434.759a18.321,18.321,0,0,0-2.046.859,2.79,2.79,0,0,1-.616.41,1.454,1.454,0,0,0-.264.185,1.857,1.857,0,0,1,.05.482,3.117,3.117,0,0,1-.045.46,2.978,2.978,0,0,0-.012.331c0,.115,0,.237-.009.362a2.649,2.649,0,0,0-.43,1.9l-.122.326a.92.92,0,0,0-.165.38.836.836,0,0,0,.036.482l.163.36q.616-.126,1.213-.269t1.272-.306q.854-.247,1.729-.45a15.452,15.452,0,0,1,1.838-.3l1.211-.127-.249.309.345-.005-.134.517.34.105a1.228,1.228,0,0,1,.214.087l.25.288a.859.859,0,0,1,.31.266,1.242,1.242,0,0,1,.213.528l-.06.319-1.264,2.019-.162.269-.32-.061a3.357,3.357,0,0,0-1.105.242c-.162.059-.332.125-.514.2a2.108,2.108,0,0,1-.551.136c-.488.135-.9.246-1.222.332s-.654.169-.981.244c-.447.131-.879.256-1.295.373a6.155,6.155,0,0,0-1.162.451,1.988,1.988,0,0,1-.4.058.47.47,0,0,0-.125,0,2.186,2.186,0,0,0-.611.157c-.2.084-.391.168-.571.249a.8.8,0,0,0-.215.352c-.029.12-.057.242-.085.372a2.174,2.174,0,0,1-.128.437,4.145,4.145,0,0,1-.22.448l.089.556a1.107,1.107,0,0,0-.271.107c0,.01-.009.016-.03.019a1.4,1.4,0,0,1-.028.474c-.037.151-.069.289-.1.419a1.579,1.579,0,0,0-.071.228.572.572,0,0,0-.011.189,1.783,1.783,0,0,1,.29,1.258,2.618,2.618,0,0,1-.357,1.091,2.49,2.49,0,0,1-.734.784,2.386,2.386,0,0,1-.517.071A.8.8,0,0,1-989.486,3510.785Zm19.945-2.317a6.131,6.131,0,0,1-2.106-.752,6.752,6.752,0,0,1-1.685-1.394,9.078,9.078,0,0,1-1.244-1.817,10.21,10.21,0,0,1-.248-3.855,12.567,12.567,0,0,1,.939-3.32,18.916,18.916,0,0,1,1.624-2.935l1.809-2.673a.363.363,0,0,0,.357-.036.951.951,0,0,0,.222-.275,3.264,3.264,0,0,1,.216-.336.766.766,0,0,1,.3-.253,1.42,1.42,0,0,1,.277-.5,5.035,5.035,0,0,1,.4-.4,4.82,4.82,0,0,0,.4-.4,1.841,1.841,0,0,0,.308-.5,1.492,1.492,0,0,0,.521-.274,3.559,3.559,0,0,0,.4-.388,4.39,4.39,0,0,1,.383-.385,1.8,1.8,0,0,1,.5-.305l-.042-.4a2.771,2.771,0,0,0,.923-.789q.273-.4.644-1.041c.226-.045.406-.074.541-.088a5.2,5.2,0,0,0,.63-.129,3.33,3.33,0,0,1,.447-.833,4.9,4.9,0,0,1,.656-.635,2.581,2.581,0,0,0,1.026.191,1.548,1.548,0,0,1,1.014.381.947.947,0,0,0,.278.552,3.555,3.555,0,0,0,.443.33c.158.1.315.2.474.312a.879.879,0,0,1,.335.5c.1-.01.168-.037.195-.082s.093-.062.2-.053a3.151,3.151,0,0,0,.168.392,1.754,1.754,0,0,0,.168.265c.061.077.123.166.186.263a2.209,2.209,0,0,1,.179.358,8.21,8.21,0,0,0-.2.822.85.85,0,0,1-.436.627c.017.166.088.247.214.245s.206.067.242.21a.677.677,0,0,1-.044.476,29.5,29.5,0,0,1,1.906,2.894,26.243,26.243,0,0,0,1.938,2.891,2.158,2.158,0,0,0,.137.85,5.782,5.782,0,0,0,.366.795c.142.256.279.515.411.773a3.926,3.926,0,0,1,.3.785,5.234,5.234,0,0,1,.118,1.134,5.439,5.439,0,0,1-.125,1.192,4.676,4.676,0,0,1-.388,1.094,2.315,2.315,0,0,1-.638.805,3.862,3.862,0,0,1-1.137,1.14,7.4,7.4,0,0,0-1.271,1.061,3.3,3.3,0,0,1-.894.455c-.325.108-.658.222-1,.341a6.9,6.9,0,0,1-.912.582q-.535.293-1.105.541a9.814,9.814,0,0,1-1.15.419,3.425,3.425,0,0,1-1.051.158,11.271,11.271,0,0,1-2.117.788,7.107,7.107,0,0,1-2.5.106,6.827,6.827,0,0,1-1.621.208A5.245,5.245,0,0,1-969.542,3508.468Zm1.715-11.491a6.834,6.834,0,0,1-.594,1.366q-.36.619-.7,1.252a7.848,7.848,0,0,0-.567,1.333,4.237,4.237,0,0,0-.162,1.6,2.791,2.791,0,0,0,1.544.481,8.291,8.291,0,0,0,1.759-.153q.893-.173,1.778-.424a9.666,9.666,0,0,1,1.6-.325c-.02-.187.053-.288.219-.305a6.321,6.321,0,0,0,2.348-.986q1.054-.724,2.2-1.473a2.313,2.313,0,0,1,.335-.695,1.305,1.305,0,0,0,.195-.837,2.066,2.066,0,0,1-.251-.445,2.5,2.5,0,0,1-.105-.555,13.778,13.778,0,0,1-1.655-2.293,17.722,17.722,0,0,0-1.629-2.357.841.841,0,0,1-.217.336c-.113.116-.25.111-.41-.02a.691.691,0,0,1-.236.449.837.837,0,0,1-.409.154,1.257,1.257,0,0,1-.477-.044,1.548,1.548,0,0,1-.446-.2q-.994.985-1.983,1.906a10.829,10.829,0,0,0-1.743,2.1c-.1.072-.158.1-.181.081a.04.04,0,0,0-.026-.007A.55.55,0,0,0-967.827,3496.977Zm19.686,9.415a1.962,1.962,0,0,1-.3-.141,3.178,3.178,0,0,0-.3-.158.854.854,0,0,0-.5-.01c-.082-.18-.163-.354-.244-.524s-.254-.23-.521-.182a1.048,1.048,0,0,0,.011-.487,1.914,1.914,0,0,0-.133-.363,3.361,3.361,0,0,1-.146-.346.737.737,0,0,1,0-.441c-.1.033-.2-.035-.305-.2a4.972,4.972,0,0,0-.333-.484l.342-.036a2.565,2.565,0,0,1-.242-1.247q.048-.587.147-1.146c.066-.373.116-.736.154-1.085a1.878,1.878,0,0,0-.221-1.06q.164.077.224-.1a1.811,1.811,0,0,0,.078-.448,2.451,2.451,0,0,0-.027-.563,4.439,4.439,0,0,0-.1-.477,12.108,12.108,0,0,0,.429-2.056q.125-1.05.2-2.08t.215-2a10.673,10.673,0,0,1,.418-1.851,1.929,1.929,0,0,1,.929.012,1.2,1.2,0,0,1,.681.354,8.377,8.377,0,0,0,1.52-1.983q.634-1.134,1.291-2.225a10.023,10.023,0,0,1,1.537-1.969,4.52,4.52,0,0,1,2.295-1.185q.8.45,1.8.958a5.174,5.174,0,0,1,1.681,1.347c.177.085.349.177.516.276s.339.19.516.276l.049.465a3.738,3.738,0,0,1,.83.872,9.805,9.805,0,0,1,.65,1.093q.3.583.579,1.18a8.326,8.326,0,0,0,.617,1.1.785.785,0,0,0-.012.331,1.386,1.386,0,0,0,.092.273,2.387,2.387,0,0,1,.11.3,2.432,2.432,0,0,1,.074.415,4.231,4.231,0,0,1-.793,2.771,7.549,7.549,0,0,1-2.126,1.889,20.309,20.309,0,0,1-2.761,1.39,25.776,25.776,0,0,0-2.663,1.269c.009.083.059.121.154.11s.125.05.1.179q.991.462,1.54.749a10.193,10.193,0,0,0,1.024.474,5.316,5.316,0,0,0,1.035.284q.56.1,1.547.215t1.544.2c.373.055.707.094,1,.115s.611.035.946.042.788.011,1.353.015a2.825,2.825,0,0,1,.644.749,4.223,4.223,0,0,1,.41.9,2.906,2.906,0,0,1,.139.881,1.2,1.2,0,0,1-.194.7.139.139,0,0,0,.183.09.963.963,0,0,1,.3-.016,1.618,1.618,0,0,0-.334.413l-.265.468a2.508,2.508,0,0,1-.315.441.859.859,0,0,1-.49.272,4.908,4.908,0,0,1-2.855.332,36.575,36.575,0,0,1-4.595-.963q-1.388-.359-2.271-.673a15.889,15.889,0,0,1-1.544-.64,9.735,9.735,0,0,1-1.238-.718q-.577-.394-1.325-.945a.148.148,0,0,0-.1.135.148.148,0,0,1-.1.135,7.849,7.849,0,0,1-.269,2.071,7.274,7.274,0,0,1-.781,1.686q-.507-.041-.659.164a2.081,2.081,0,0,1-.383.385,1.109,1.109,0,0,1-.317.058A.435.435,0,0,1-948.141,3506.392Zm5.966-16.778q-.446.533-.874,1.1a7.046,7.046,0,0,0-.738,1.208,4.206,4.206,0,0,0-.375,1.5,10.772,10.772,0,0,0,2.657-1.018q1.37-.726,2.589-1.387a3.294,3.294,0,0,0-1-1.764,3.454,3.454,0,0,0-1.468-.8A6.881,6.881,0,0,1-942.175,3489.614ZM-1990,2025V1475H-120v550Zm1786-602H-1888V873h-.071L-1254,525.112V0H-70V1423Zm-1786,0V0h684V500l-631,344v579Z" transform="translate(1990)" fill="#151515"/>
</svg>
