<svg xmlns="http://www.w3.org/2000/svg" width="1919.999" height="3771.001" viewBox="0 0 1919.999 3771.001">
  <path id="Overlay2" d="M-70,3771H-809.006c0-1.268.007-2.613.007-4a1319.974,1319.974,0,0,0-14.008-194.529c-4.482-29.952-10.053-59.137-16.555-86.748-6.43-27.3-13.857-53.412-22.072-77.609a609.943,609.943,0,0,0-26.954-66.873,398.812,398.812,0,0,0-31.2-54.542c-11.089-16.023-22.8-29.688-34.806-40.613a157.074,157.074,0,0,0-18.556-14.583,122.629,122.629,0,0,0-17.754-9.862l-.7,0-.008-.316c-.251-.111-.5-.219-.753-.327h.745l-15.138-598H-1946V2073H-70V3771h0Zm-1920,0V2671h932l-8.807,551.045-3.17,0a123.31,123.31,0,0,0-16.875,9.462,157.031,157.031,0,0,0-18.557,14.583c-12.007,10.924-23.717,24.588-34.806,40.613a398.744,398.744,0,0,0-31.2,54.542,609.717,609.717,0,0,0-26.954,66.873c-8.216,24.194-15.641,50.306-22.073,77.609-6.5,27.615-12.073,56.8-16.554,86.748A1319.831,1319.831,0,0,0-1251,3767c0,1.225,0,2.569.006,4H-1990Zm0-1746V1475H-120v550Zm1786-602H-1888V873h-.071L-1254,525.112V0H-70V1423Zm-1786,0V0h684V500l-631,344v579Z" transform="translate(1990)" fill="#151515"/>
</svg>
